<svg width="375" height="812" viewBox="0 0 375 812" fill="none" xmlns="http://www.w3.org/2000/svg">
<g clip-path="url(#clip0_1010_11415)">
<rect width="375" height="812" fill="#F7F7F8"/>
<rect width="375" height="127" transform="translate(0 685)" fill="url(#paint0_linear_1010_11415)"/>
<rect x="20" y="736" width="335" height="56" rx="8" fill="black"/>
<path d="M176.781 762.876H178.909V764.988H176.781V762.876ZM183.053 756.108H185.181V766.204H183.053V756.108ZM184.445 760.332H187.053V762.092H184.445V760.332ZM173.501 765.9L173.261 764.252C174.147 764.252 175.107 764.247 176.141 764.236C177.187 764.225 178.243 764.193 179.309 764.14C180.376 764.076 181.411 763.985 182.413 763.868L182.573 765.324C181.539 765.505 180.488 765.639 179.421 765.724C178.355 765.799 177.315 765.847 176.301 765.868C175.299 765.879 174.365 765.889 173.501 765.9ZM175.133 766.78H185.181V770.924H183.053V768.428H175.133V766.78ZM173.629 757.18H182.045V758.716H173.629V757.18ZM177.837 759.068C178.936 759.068 179.811 759.265 180.461 759.66C181.123 760.044 181.453 760.577 181.453 761.26C181.453 761.943 181.123 762.481 180.461 762.876C179.811 763.271 178.936 763.468 177.837 763.468C176.749 763.468 175.875 763.271 175.213 762.876C174.563 762.481 174.237 761.943 174.237 761.26C174.237 760.577 174.563 760.044 175.213 759.66C175.875 759.265 176.749 759.068 177.837 759.068ZM177.837 760.444C177.336 760.444 176.947 760.513 176.669 760.652C176.392 760.791 176.253 760.993 176.253 761.26C176.253 761.527 176.392 761.735 176.669 761.884C176.947 762.023 177.336 762.092 177.837 762.092C178.339 762.092 178.728 762.023 179.005 761.884C179.293 761.735 179.437 761.527 179.437 761.26C179.437 760.993 179.293 760.791 179.005 760.652C178.728 760.513 178.339 760.444 177.837 760.444ZM176.781 755.98H178.909V757.884H176.781V755.98ZM198.332 756.108H200.46V766.748H198.332V756.108ZM190.588 768.956H200.844V770.668H190.588V768.956ZM190.588 765.692H192.716V769.66H190.588V765.692ZM192.396 757.052C193.153 757.052 193.836 757.212 194.444 757.532C195.052 757.852 195.532 758.295 195.884 758.86C196.247 759.425 196.428 760.076 196.428 760.812C196.428 761.527 196.247 762.172 195.884 762.748C195.532 763.313 195.052 763.761 194.444 764.092C193.836 764.412 193.153 764.572 192.396 764.572C191.639 764.572 190.956 764.412 190.348 764.092C189.74 763.761 189.255 763.313 188.892 762.748C188.54 762.172 188.364 761.527 188.364 760.812C188.364 760.076 188.54 759.425 188.892 758.86C189.255 758.295 189.74 757.852 190.348 757.532C190.956 757.212 191.639 757.052 192.396 757.052ZM192.396 758.876C192.033 758.876 191.703 758.956 191.404 759.116C191.105 759.265 190.871 759.484 190.7 759.772C190.529 760.049 190.444 760.396 190.444 760.812C190.444 761.207 190.529 761.548 190.7 761.836C190.871 762.113 191.105 762.332 191.404 762.492C191.703 762.641 192.033 762.716 192.396 762.716C192.759 762.716 193.089 762.641 193.388 762.492C193.687 762.332 193.921 762.113 194.092 761.836C194.263 761.548 194.348 761.207 194.348 760.812C194.348 760.396 194.263 760.049 194.092 759.772C193.921 759.484 193.687 759.265 193.388 759.116C193.089 758.956 192.759 758.876 192.396 758.876Z" fill="white"/>
<rect x="121" y="799" width="134" height="5" rx="2.5" fill="black"/>
<path d="M136.759 215.01C138.799 215.01 140.209 212.82 140.209 208.71C140.209 204.63 138.799 202.44 136.759 202.44C134.689 202.44 133.309 204.63 133.309 208.71C133.309 212.82 134.689 215.01 136.759 215.01ZM136.759 198.87C140.929 198.87 144.019 202.65 144.019 208.71C144.019 214.8 140.929 218.61 136.759 218.61C132.559 218.61 129.499 214.8 129.499 208.71C129.499 202.65 132.559 198.87 136.759 198.87ZM154.999 207.36V210.63H150.979V224.58H147.019V196.95H150.979V207.36H154.999ZM174.466 204.06L172.786 207.06C169.696 206.43 167.536 204.96 166.306 203.04C165.106 205.17 162.886 206.79 159.616 207.51L157.906 204.51C162.286 203.61 164.176 201.24 164.176 198.78V197.7H168.286V198.78C168.286 201.06 170.206 203.28 174.466 204.06ZM176.026 221.16V219.27H164.986V221.16H176.026ZM176.026 216.3V214.08H179.956V224.25H161.086V214.08H164.536V211.59C162.016 211.71 159.616 211.71 157.456 211.71L157.006 208.56C162.106 208.56 168.736 208.56 174.526 207.81L174.766 210.6C172.696 210.96 170.566 211.2 168.466 211.38V214.56H164.986V216.3H176.026ZM175.996 196.98H179.956V212.85H175.996V196.98ZM189.494 199.59V214.59C191.984 214.53 194.294 214.35 196.844 213.87L197.324 217.17C194.024 217.86 191.024 217.98 187.544 217.98H185.624V199.59H189.494ZM198.704 205.65V197.4H202.394V223.35H198.704V208.86H193.274V205.65H198.704ZM204.554 196.92H208.304V224.55H204.554V196.92ZM221.592 212.88V218.16H227.682V212.88C226.722 213.06 225.702 213.15 224.622 213.15C223.542 213.15 222.552 213.06 221.592 212.88ZM224.622 201.42C220.782 201.42 218.232 202.98 218.232 205.74C218.232 208.47 220.782 210.06 224.622 210.06C228.462 210.06 231.042 208.47 231.042 205.74C231.042 202.98 228.462 201.42 224.622 201.42ZM231.612 218.16H237.162V221.37H212.142V218.16H217.662V211.41C215.562 210.12 214.302 208.14 214.332 205.74C214.332 201.21 218.682 198.3 224.622 198.3C230.592 198.3 234.942 201.21 234.942 205.74C234.942 208.14 233.682 210.12 231.612 211.41V218.16ZM241.35 214.896L240.998 200.862H245.393L245.041 214.896H241.35ZM243.195 222.176C241.862 222.176 240.808 221.165 240.808 219.876C240.808 218.587 241.862 217.576 243.195 217.576C244.528 217.576 245.583 218.587 245.583 219.876C245.583 221.165 244.528 222.176 243.195 222.176ZM74.1687 251.45L74.5588 254.6C71.1688 255.32 67.9888 255.47 61.8088 255.47H59.4688V242.81H71.8588V245.96H63.3988V252.29C68.4088 252.26 71.1688 252.08 74.1687 251.45ZM71.1988 265.43C74.7088 265.43 76.6588 264.65 76.6588 262.97C76.6588 261.32 74.7088 260.54 71.1988 260.54C67.7188 260.54 65.7688 261.32 65.7688 262.97C65.7688 264.65 67.7188 265.43 71.1988 265.43ZM71.1988 257.39C76.9288 257.39 80.5588 259.49 80.5588 262.97C80.5588 266.51 76.9288 268.61 71.1988 268.61C65.5288 268.61 61.8688 266.51 61.8688 262.97C61.8688 259.49 65.5288 257.39 71.1988 257.39ZM80.3188 247.49H83.9188V250.7H80.3188V256.91H76.3288V240.92H80.3188V247.49ZM102.696 253.67L100.896 256.73C97.7764 255.92 95.5864 254.21 94.3264 251.99C93.1264 254.42 90.9364 256.31 87.7264 257.21L85.8964 254.15C90.3364 252.92 92.2864 249.86 92.2864 246.8H86.8864V243.68H92.2864V240.86H96.2464V243.68H101.706V246.8H96.2464C96.2464 249.68 98.2264 252.53 102.696 253.67ZM94.7164 261.44V265.16H105.336V261.44H94.7164ZM90.8164 268.25V258.32H109.206V268.25H90.8164ZM105.246 240.95H109.206V257.12H105.246V251.36H101.076V248.18H105.246V240.95ZM124.744 255.32V259.82C126.964 259.7 129.184 259.55 131.284 259.34L131.524 262.22C125.614 263.15 119.434 263.21 114.304 263.21L113.824 259.97C115.984 259.97 118.354 259.97 120.784 259.91V255.32H115.594V243.41H129.844V246.56H119.554V252.14H130.024V255.32H124.744ZM132.784 240.95H136.744V268.64H132.784V240.95ZM151.982 246.86V248.39C151.982 252.89 154.202 257.66 158.822 259.58L156.662 262.7C153.452 261.32 151.262 258.62 150.032 255.29C148.802 258.89 146.582 261.92 143.342 263.39L141.092 260.24C145.712 258.17 147.962 253.1 147.962 248.39V246.86H142.202V243.59H157.682V246.86H151.982ZM160.232 240.95H164.192V268.58H160.232V240.95ZM178.867 248.75C178.867 250.76 180.367 251.96 182.407 251.96C184.447 251.96 185.947 250.76 185.947 248.75C185.947 246.71 184.447 245.51 182.407 245.51C180.367 245.51 178.867 246.71 178.867 248.75ZM189.757 248.75C189.757 252.5 186.607 255.2 182.407 255.2C178.207 255.2 175.057 252.5 175.057 248.75C175.057 244.97 178.207 242.27 182.407 242.27C186.607 242.27 189.757 244.97 189.757 248.75ZM181.117 257.21V264.65C182.587 264.53 184.027 264.29 185.407 263.84L185.947 266.96C183.667 267.74 181.507 267.89 178.807 267.89H177.277V257.21H181.117ZM191.887 265.94C192.967 265.94 193.717 265.55 193.717 264.71C193.717 263.9 192.967 263.51 191.887 263.51C190.837 263.51 190.057 263.9 190.057 264.71C190.057 265.55 190.837 265.94 191.887 265.94ZM191.887 260.84C195.037 260.84 197.227 262.34 197.227 264.71C197.227 267.11 195.037 268.61 191.887 268.61C188.737 268.61 186.547 267.11 186.547 264.71C186.547 262.34 188.737 260.84 191.887 260.84ZM193.837 255.35V257.3H198.787V260.15H184.957V257.3H189.997V255.35H193.837ZM196.567 246.65H200.227V249.92H196.567V254.54H192.607V240.95H196.567V246.65ZM210.154 245.72C208.054 245.72 206.524 246.98 206.524 249.11C206.524 251.24 208.054 252.47 210.154 252.47C212.224 252.47 213.784 251.24 213.784 249.11C213.784 246.98 212.224 245.72 210.154 245.72ZM210.154 255.8C205.894 255.8 202.654 253.01 202.654 249.11C202.654 245.21 205.894 242.42 210.154 242.42C214.384 242.42 217.624 245.21 217.624 249.11C217.624 253.01 214.384 255.8 210.154 255.8ZM222.244 257.54V258.53C222.244 261.47 223.714 264.17 227.344 265.37L225.394 268.22C222.814 267.32 221.164 265.64 220.234 263.51C219.334 265.64 217.714 267.5 215.224 268.49C212.674 267.56 211.114 265.76 210.214 263.6C209.254 265.67 207.634 267.32 205.144 268.22L203.194 265.37C206.794 264.08 208.294 261.26 208.294 258.53V257.54H212.134V258.53C212.134 260.78 213.004 263.12 215.164 264.68C217.414 263.03 218.314 260.6 218.314 258.53V257.54H222.244ZM224.194 246.86H227.854V250.07H224.194V256.37H220.234V240.95H224.194V246.86ZM253.772 248.69L252.362 251.75C247.652 251.18 244.292 249.23 242.522 246.59C240.782 249.23 237.362 251.15 232.652 251.75L231.272 248.69C237.482 247.97 240.482 244.91 240.482 242.09V241.25H244.562V242.09C244.562 244.88 247.562 248 253.772 248.69ZM247.952 265.19V262.79H236.882V265.19H247.952ZM247.952 259.82V257.51H251.852V268.25H232.952V257.51H236.882V259.82H247.952ZM230.042 253.01H255.002V256.13H230.042V253.01ZM263.01 243.56V258.38C266.64 258.29 270.57 257.99 274.62 257.18L275.04 260.48C270.33 261.47 265.74 261.77 261.54 261.77H259.08V243.56H263.01ZM276.75 240.92H280.71V268.55H276.75V240.92ZM290.247 246.71V258.71C294.177 258.65 297.447 258.44 301.017 257.84L301.407 261.11C297.237 261.86 293.457 262.01 288.657 262.01H286.317V243.5H299.187V246.71H290.247ZM310.887 251.15V254.42H306.867V268.64H302.907V240.95H306.867V251.15H310.887ZM315.163 266.249C313.83 266.249 312.79 265.194 312.79 263.876C312.79 262.543 313.83 261.503 315.163 261.503C316.481 261.503 317.536 262.543 317.536 263.876C317.536 265.194 316.481 266.249 315.163 266.249Z" fill="#222227"/>
<path d="M142.144 180V170.136H146.218C148.433 170.136 149.745 171.312 149.745 173.294V173.308C149.745 174.606 149.055 175.687 147.961 176.117L150.039 180H147.701L145.862 176.425H144.208V180H142.144ZM144.208 174.859H145.992C147.018 174.859 147.633 174.278 147.633 173.308V173.294C147.633 172.351 146.983 171.749 145.965 171.749H144.208V174.859ZM150.483 180L153.929 170.136H156.355L159.794 180H157.627L156.882 177.607H153.396L152.65 180H150.483ZM155.118 172.05L153.874 176.062H156.403L155.159 172.05H155.118ZM160.806 180V170.136H162.61L167.067 176.548H167.108V170.136H169.166V180H167.375L162.904 173.54H162.863V180H160.806ZM170.813 180V170.136H174.58C177.533 170.136 179.283 171.893 179.283 175.017V175.03C179.283 178.161 177.54 180 174.58 180H170.813ZM172.878 178.291H174.334C176.18 178.291 177.178 177.17 177.178 175.037V175.023C177.178 172.966 176.146 171.838 174.334 171.838H172.878V178.291ZM185.066 180.171C182.134 180.171 180.309 178.209 180.309 175.071V175.058C180.309 171.92 182.147 169.965 185.066 169.965C187.992 169.965 189.824 171.927 189.824 175.058V175.071C189.824 178.209 187.999 180.171 185.066 180.171ZM185.066 178.421C186.707 178.421 187.719 177.115 187.719 175.071V175.058C187.719 173 186.687 171.715 185.066 171.715C183.453 171.715 182.414 172.993 182.414 175.058V175.071C182.414 177.136 183.446 178.421 185.066 178.421ZM191.157 180V170.136H193.543L196.346 177.225H196.387L199.189 170.136H201.575V180H199.736V173.328H199.675L197.016 180H195.717L193.051 173.328H192.996V180H191.157ZM205.991 180V170.136H210.284C212.144 170.136 213.312 171.093 213.312 172.61V172.624C213.312 173.704 212.492 174.627 211.405 174.771V174.812C212.779 174.914 213.771 175.885 213.771 177.177V177.19C213.771 178.92 212.465 180 210.359 180H205.991ZM209.751 171.667H208.056V174.258H209.498C210.66 174.258 211.282 173.772 211.282 172.918V172.904C211.282 172.118 210.715 171.667 209.751 171.667ZM209.744 175.659H208.056V178.462H209.833C211.016 178.462 211.665 177.977 211.665 177.061V177.047C211.665 176.145 211.009 175.659 209.744 175.659ZM219.396 180.171C216.464 180.171 214.639 178.209 214.639 175.071V175.058C214.639 171.92 216.478 169.965 219.396 169.965C222.322 169.965 224.154 171.927 224.154 175.058V175.071C224.154 178.209 222.329 180.171 219.396 180.171ZM219.396 178.421C221.037 178.421 222.049 177.115 222.049 175.071V175.058C222.049 173 221.017 171.715 219.396 171.715C217.783 171.715 216.744 172.993 216.744 175.058V175.071C216.744 177.136 217.776 178.421 219.396 178.421ZM224.373 180L227.511 175.03V175.01L224.394 170.136H226.82L228.919 173.69H228.994L231.079 170.136H233.383L230.149 175.044V175.071L233.342 180H230.99L228.823 176.541H228.755L226.602 180H224.373Z" fill="#8E8E98"/>
<g filter="url(#filter0_d_1010_11415)">
<path d="M329.998 316.997C337.178 316.997 342.998 322.817 342.998 329.997V479.999C338.028 480 334 484.029 334 488.999C334 493.969 338.028 497.997 342.998 497.998V535.997C342.998 543.177 337.178 548.997 329.998 548.997H44.998C37.8184 548.997 31.9981 543.177 31.998 535.997V497.998C36.9673 497.997 40.9951 493.969 40.9951 488.999C40.995 484.029 36.9672 480.001 31.998 479.999V329.997C31.998 322.817 37.8183 316.997 44.998 316.997H329.998Z" fill="#CACAD3"/>
</g>
<line x1="50.502" y1="489.5" x2="325.502" y2="489.5" stroke="#E2E2E9" stroke-width="3" stroke-linecap="round" stroke-dasharray="1 10"/>
<rect x="164.507" y="308.5" width="47" height="27" rx="7.5" fill="white"/>
<rect x="164.507" y="308.5" width="47" height="27" rx="7.5" stroke="#E2E2E9"/>
<path d="M182.647 322.857C182.647 325.544 181.021 327.171 178.272 327.171C175.326 327.171 173.521 325.243 173.521 322.037C173.521 318.879 175.326 316.965 178.225 316.965C180.528 316.965 182.265 318.325 182.559 320.321H180.487C180.187 319.289 179.346 318.674 178.231 318.674C176.604 318.674 175.627 319.911 175.627 322.01C175.627 324.149 176.666 325.455 178.307 325.455C179.653 325.455 180.59 324.628 180.631 323.404L180.638 323.247H178.491V321.743H182.647V322.857ZM186.079 327H184.015V317.136H186.079V327ZM189.784 327H187.72V317.136H194.18V318.838H189.784V321.483H193.797V323.117H189.784V327ZM199.826 327H197.762V318.838H194.911V317.136H202.684V318.838H199.826V327Z" fill="#222227"/>
<path d="M118.924 378.678H121.845V379.606C121.845 383.947 119.579 387.77 114.747 389.107L113.054 386.295C117.149 385.176 118.924 382.391 118.924 379.606V378.678ZM119.607 378.678H122.555V379.606C122.555 382.173 124.303 384.794 128.371 385.858L126.732 388.698C121.873 387.415 119.607 383.729 119.607 379.606V378.678ZM113.955 376.958H127.524V379.797H113.955V376.958ZM118.924 374.364H122.555V378.187H118.924V374.364ZM129.517 374.446H133.148V389.244H129.517V374.446ZM132.138 380.343H136.507V383.319H132.138V380.343ZM116.713 390.309H133.148V399.455H116.713V390.309ZM129.599 393.148H120.289V396.588H129.599V393.148ZM149.664 379.606H156.544V382.528H149.664V379.606ZM149.664 387.442H156.544V390.363H149.664V387.442ZM145.296 376.194C149.063 376.194 151.821 379.688 151.821 385.203C151.821 390.773 149.063 394.267 145.296 394.267C141.501 394.267 138.77 390.773 138.77 385.203C138.77 379.688 141.501 376.194 145.296 376.194ZM145.296 379.497C143.466 379.497 142.21 381.49 142.21 385.203C142.21 388.971 143.466 390.991 145.296 390.991C147.152 390.991 148.381 388.971 148.381 385.203C148.381 381.49 147.152 379.497 145.296 379.497ZM155.971 374.419H159.574V399.782H155.971V374.419ZM163.449 378.241H175.544V381.135H163.449V378.241ZM169.538 382.255C172.759 382.255 175.08 384.739 175.08 388.288C175.08 391.81 172.759 394.295 169.538 394.295C166.343 394.295 163.995 391.81 163.995 388.288C163.995 384.739 166.343 382.255 169.538 382.255ZM169.538 385.285C168.172 385.285 167.217 386.377 167.217 388.288C167.217 390.199 168.172 391.264 169.538 391.264C170.903 391.264 171.885 390.199 171.885 388.288C171.885 386.377 170.903 385.285 169.538 385.285ZM181.741 374.446H185.209V399.728H181.741V374.446ZM178.711 384.712H182.888V387.633H178.711V384.712ZM176.445 374.91H179.83V398.663H176.445V374.91ZM167.763 375.129H171.339V380.07H167.763V375.129ZM197.957 377.258H201.096V377.995C201.096 382.446 197.465 386.077 191.049 386.95L189.711 384.111C195.281 383.429 197.957 380.589 197.957 377.995V377.258ZM198.994 377.258H202.134V377.995C202.134 380.589 204.809 383.429 210.379 384.111L209.068 386.95C202.625 386.077 198.994 382.446 198.994 377.995V377.258ZM198.148 390.472H201.752V399.755H198.148V390.472ZM188.619 388.397H211.471V391.291H188.619V388.397ZM190.64 375.729H209.396V378.596H190.64V375.729ZM231.235 374.419H234.921V399.782H231.235V374.419ZM226.703 379.47H233.256V382.418H226.703V379.47ZM226.703 385.613H233.256V388.616H226.703V385.613ZM219.578 376.385H222.499V380.043C222.499 386.404 220.342 392.247 215.619 394.622L213.353 391.728C217.666 389.735 219.578 384.848 219.578 380.043V376.385ZM220.342 376.385H223.236V380.043C223.236 384.903 225.065 389.599 229.242 391.483L227.058 394.377C222.335 392.056 220.342 386.404 220.342 380.043V376.385ZM251.573 382.336H258.235V385.258H251.573V382.336ZM244.693 376.385H247.642V380.043C247.642 386.404 245.485 392.274 240.734 394.65L238.468 391.728C242.782 389.735 244.693 384.848 244.693 380.043V376.385ZM245.458 376.385H248.352V380.043C248.352 384.848 250.181 389.462 254.358 391.319L252.201 394.213C247.451 391.919 245.458 386.35 245.458 380.043V376.385ZM256.433 374.419H260.037V399.782H256.433V374.419ZM142.075 414.446H145.706V428.534H142.075V414.446ZM144.696 419.934H149.064V422.91H144.696V419.934ZM134.813 415.893H138.69C138.69 422.609 134.485 427.169 126.95 429.135L125.53 426.268C131.728 424.712 134.813 421.49 134.813 417.695V415.893ZM126.731 415.893H136.997V418.76H126.731V415.893ZM129.298 429.544H145.706V439.455H129.298V429.544ZM142.13 432.411H132.874V436.588H142.13V432.411ZM156.597 416.385H159.546V420.07C159.546 426.323 157.362 432.192 152.584 434.54L150.4 431.619C154.659 429.626 156.597 424.766 156.597 420.07V416.385ZM157.335 416.385H160.229V420.07C160.229 424.602 162.031 429.216 166.071 431.182L163.887 434.076C159.328 431.756 157.335 426.131 157.335 420.07V416.385ZM167.081 414.446H170.74V439.728H167.081V414.446ZM169.921 424.166H174.398V427.196H169.921V424.166ZM192.306 414.446H195.937V429.244H192.306V414.446ZM194.49 420.507H199.295V423.51H194.49V420.507ZM179.502 430.227H183.078V432.138H192.333V430.227H195.937V439.455H179.502V430.227ZM183.078 434.868V436.615H192.333V434.868H183.078ZM176.034 416.63H190.914V419.497H176.034V416.63ZM183.488 420.18C187.146 420.18 189.685 421.982 189.685 424.657C189.685 427.333 187.146 429.135 183.488 429.135C179.802 429.135 177.263 427.333 177.263 424.657C177.263 421.982 179.802 420.18 183.488 420.18ZM183.488 422.828C181.85 422.828 180.758 423.483 180.758 424.657C180.758 425.858 181.85 426.486 183.488 426.486C185.099 426.486 186.218 425.858 186.218 424.657C186.218 423.483 185.099 422.828 183.488 422.828ZM181.658 414.255H185.29V418.241H181.658V414.255ZM218.65 414.446H222.282V439.728H218.65V414.446ZM202.488 416.849H206.091V432.547H202.488V416.849ZM202.488 430.418H204.726C208.412 430.418 212.507 430.145 216.685 429.326L217.094 432.329C212.753 433.23 208.576 433.503 204.726 433.503H202.488V430.418ZM242.428 414.419H246.087V439.782H242.428V414.419ZM245.268 423.783H249.745V426.759H245.268V423.783ZM227.248 430.691H229.378C233.637 430.691 236.995 430.554 240.708 429.899L241.063 432.902C237.241 433.585 233.773 433.694 229.378 433.694H227.248V430.691ZM227.248 416.767H239.043V419.688H230.852V432.138H227.248V416.767Z" fill="white"/>
<rect width="375" height="54" fill="white"/>
<rect opacity="0.35" x="327.836" y="21.5" width="21" height="10.3333" rx="2.16667" stroke="#222227"/>
<path opacity="0.4" d="M350.336 24.668V28.668C351.141 28.3292 351.664 27.5411 351.664 26.668C351.664 25.7948 351.141 25.0067 350.336 24.668Z" fill="#222227"/>
<rect x="329.336" y="23" width="18" height="7.33333" rx="1.33333" fill="#222227"/>
<path d="M312.447 29.4247C313.728 28.3425 315.604 28.3425 316.885 29.4247C316.949 29.483 316.987 29.5655 316.988 29.6523C316.99 29.739 316.956 29.823 316.895 29.8837L314.889 31.9052C314.83 31.9646 314.75 31.998 314.666 31.998C314.582 31.9979 314.502 31.9646 314.443 31.9052L312.438 29.8837C312.377 29.8229 312.342 29.739 312.344 29.6523C312.346 29.5656 312.383 29.4829 312.447 29.4247ZM309.771 26.7275C312.53 24.1634 316.802 24.1635 319.562 26.7275C319.624 26.7876 319.659 26.8705 319.66 26.957C319.661 27.0435 319.627 27.127 319.566 27.1884L318.407 28.3583C318.288 28.4778 318.095 28.4804 317.973 28.3642C317.067 27.5444 315.887 27.0907 314.665 27.0908C313.444 27.0913 312.266 27.545 311.36 28.3642C311.238 28.4805 311.044 28.4778 310.925 28.3583L309.767 27.1884C309.705 27.1271 309.671 27.0435 309.672 26.957C309.673 26.8705 309.708 26.7875 309.771 26.7275ZM307.097 24.039C311.328 19.9869 318.004 19.9871 322.236 24.039C322.298 24.0992 322.333 24.1817 322.333 24.2675C322.333 24.3533 322.3 24.4361 322.239 24.497L321.079 25.6669C320.96 25.787 320.765 25.7881 320.644 25.6699C319.031 24.1384 316.892 23.2842 314.667 23.2841C312.442 23.2841 310.302 24.1382 308.689 25.6699C308.568 25.7882 308.374 25.787 308.255 25.6669L307.094 24.497C307.033 24.4361 307 24.3532 307 24.2675C307.001 24.1817 307.035 24.0991 307.097 24.039Z" fill="#222227"/>
<path d="M287 28.0039C287.552 28.0039 288 28.4516 288 29.0039V31.0039C288 31.5562 287.552 32.0039 287 32.0039H286C285.448 32.0039 285 31.5562 285 31.0039V29.0039C285 28.4516 285.448 28.0039 286 28.0039H287ZM291.664 26.0039C292.216 26.0039 292.664 26.4516 292.664 27.0039V31.0039C292.664 31.5562 292.216 32.0039 291.664 32.0039H290.664C290.112 32.0039 289.664 31.5562 289.664 31.0039V27.0039C289.664 26.4516 290.112 26.0039 290.664 26.0039H291.664ZM301 21.3359C301.552 21.3359 302 21.7837 302 22.3359V31.0029C302 31.5551 301.552 32.0029 301 32.0029H300C299.448 32.0029 299 31.5551 299 31.0029V22.3359C299 21.7837 299.448 21.3359 300 21.3359H301ZM296.336 23.668C296.888 23.668 297.336 24.1157 297.336 24.668V31.001C297.336 31.5533 296.888 32.001 296.336 32.001H295.336C294.784 32.001 294.336 31.5533 294.336 31.001V24.668C294.336 24.1157 294.784 23.668 295.336 23.668H296.336Z" fill="#222227"/>
<path d="M38.4012 21.248C40.7303 21.248 42.6712 22.8813 42.6712 26.5874V26.6021C42.6712 30.0957 41.0525 32.1831 38.3572 32.1831C36.4017 32.1831 34.9368 31.0552 34.6072 29.4585L34.5926 29.3779H36.4676L36.4896 29.4438C36.7752 30.1689 37.4197 30.6377 38.3646 30.6377C40.0638 30.6377 40.7742 29.0117 40.8475 27.0122C40.8548 26.9023 40.8621 26.7925 40.8621 26.6753H40.8182C40.4007 27.6421 39.346 28.3745 37.9178 28.3745C35.8816 28.3745 34.4461 26.9097 34.4461 24.9248V24.9102C34.4461 22.7788 36.1233 21.248 38.4012 21.248ZM38.4012 26.917C39.6097 26.917 40.5325 26.0674 40.5325 24.8882V24.8809C40.5325 23.709 39.6097 22.7935 38.4231 22.7935C37.2513 22.7935 36.3064 23.7017 36.3064 24.8442V24.8589C36.3064 26.0601 37.2 26.917 38.4012 26.917ZM44.7296 25.0859C44.1363 25.0859 43.6676 24.6172 43.6676 24.0239C43.6676 23.4307 44.1363 22.9692 44.7296 22.9692C45.3229 22.9692 45.7843 23.4307 45.7843 24.0239C45.7843 24.6172 45.3229 25.0859 44.7296 25.0859ZM44.7296 30.4619C44.1363 30.4619 43.6676 29.9932 43.6676 29.3999C43.6676 28.8066 44.1363 28.3452 44.7296 28.3452C45.3229 28.3452 45.7843 28.8066 45.7843 29.3999C45.7843 29.9932 45.3229 30.4619 44.7296 30.4619ZM51.9809 32V29.9712H46.7074V28.3599L51.0946 21.4312H53.7826V28.4185H55.2182V29.9712H53.7826V32H51.9809ZM48.4066 28.4624H52.0102V22.8594H51.9662L48.4066 28.4111V28.4624ZM58.7487 32V23.2329H58.7048L55.9729 25.1079V23.3721L58.7341 21.4312H60.6018V32H58.7487Z" fill="#222227"/>
</g>
<defs>
<filter id="filter0_d_1010_11415" x="11.998" y="296.997" width="351" height="272" filterUnits="userSpaceOnUse" color-interpolation-filters="sRGB">
<feFlood flood-opacity="0" result="BackgroundImageFix"/>
<feColorMatrix in="SourceAlpha" type="matrix" values="0 0 0 0 0 0 0 0 0 0 0 0 0 0 0 0 0 0 127 0" result="hardAlpha"/>
<feOffset/>
<feGaussianBlur stdDeviation="10"/>
<feComposite in2="hardAlpha" operator="out"/>
<feColorMatrix type="matrix" values="0 0 0 0 0 0 0 0 0 0 0 0 0 0 0 0 0 0 0.05 0"/>
<feBlend mode="normal" in2="BackgroundImageFix" result="effect1_dropShadow_1010_11415"/>
<feBlend mode="normal" in="SourceGraphic" in2="effect1_dropShadow_1010_11415" result="shape"/>
</filter>
<linearGradient id="paint0_linear_1010_11415" x1="188" y1="7.86519e-08" x2="187.523" y2="127" gradientUnits="userSpaceOnUse">
<stop stop-color="#F7F7F8" stop-opacity="0"/>
<stop offset="0.355891" stop-color="#F7F7F8"/>
<stop offset="0.991148" stop-color="#F7F7F8"/>
</linearGradient>
<clipPath id="clip0_1010_11415">
<rect width="375" height="812" fill="white"/>
</clipPath>
</defs>
</svg>
