<svg width="375" height="812" viewBox="0 0 375 812" fill="none" xmlns="http://www.w3.org/2000/svg">
<g clip-path="url(#clip0_1010_11396)">
<rect width="375" height="812" fill="#F7F7F8"/>
<path d="M111.549 212.818H115.509V216.898H111.549V212.818ZM100.989 210.568H126.099V213.718H100.989V210.568ZM103.779 216.088H123.069V224.638H119.079V219.238H103.779V216.088ZM111.549 196.918H115.509V200.998H111.549V196.918ZM111.309 201.298H114.819V201.868C114.819 206.098 110.799 209.038 103.239 209.578L102.039 206.608C108.729 206.188 111.309 203.998 111.309 201.868V201.298ZM112.239 201.298H115.749V201.868C115.749 203.998 118.329 206.188 125.019 206.608L123.819 209.578C116.229 209.038 112.239 206.098 112.239 201.868V201.298ZM103.389 199.408H123.699V202.498H103.389V199.408ZM146.407 196.888H150.367V224.668H146.407V196.888ZM149.467 207.718H154.387V211.048H149.467V207.718ZM128.467 200.998H144.637V204.178H128.467V200.998ZM136.597 205.738C140.647 205.738 143.647 208.498 143.647 212.368C143.647 216.238 140.647 218.998 136.597 218.998C132.547 218.998 129.547 216.238 129.547 212.368C129.547 208.498 132.547 205.738 136.597 205.738ZM136.597 208.978C134.707 208.978 133.357 210.238 133.357 212.368C133.357 214.498 134.707 215.758 136.597 215.758C138.487 215.758 139.837 214.498 139.837 212.368C139.837 210.238 138.487 208.978 136.597 208.978ZM134.587 197.338H138.577V202.198H134.587V197.338ZM159.124 209.698H178.654V212.878H159.124V209.698ZM156.214 218.068H181.354V221.338H156.214V218.068ZM159.124 199.168H178.444V202.408H163.084V211.018H159.124V199.168ZM202.862 196.888H206.882V212.398H202.862V196.888ZM185.222 208.708H187.652C193.052 208.708 196.562 208.618 200.582 207.928L201.032 211.138C196.892 211.798 193.202 211.918 187.652 211.918H185.222V208.708ZM185.192 198.148H197.972V206.428H189.152V210.808H185.222V203.428H194.042V201.298H185.192V198.148ZM188.402 213.538H192.332V215.878H202.922V213.538H206.882V224.368H188.402V213.538ZM192.332 218.938V221.188H202.922V218.938H192.332ZM230.61 196.888H234.6V224.668H230.61V196.888ZM212.85 199.528H216.81V216.778H212.85V199.528ZM212.85 214.438H215.31C219.36 214.438 223.86 214.138 228.45 213.238L228.9 216.538C224.13 217.528 219.54 217.828 215.31 217.828H212.85V214.438ZM256.737 196.858H260.757V224.728H256.737V196.858ZM259.857 207.148H264.777V210.418H259.857V207.148ZM240.057 214.738H242.397C247.077 214.738 250.767 214.588 254.847 213.868L255.237 217.168C251.037 217.918 247.227 218.038 242.397 218.038H240.057V214.738ZM240.057 199.438H253.017V202.648H244.017V216.328H240.057V199.438ZM268.275 214.893L267.924 200.86H272.318L271.967 214.893H268.275ZM270.121 222.174C268.788 222.174 267.733 221.163 267.733 219.874C267.733 218.585 268.788 217.574 270.121 217.574C271.454 217.574 272.509 218.585 272.509 219.874C272.509 221.163 271.454 222.174 270.121 222.174ZM69.999 245.268H76.509V248.448H69.999V245.268ZM69.789 251.028H76.299V254.208H69.789V251.028ZM75.879 240.888H79.869V256.878H75.879V240.888ZM66.819 242.778H71.079C71.079 250.338 66.819 255.198 58.389 257.508L56.829 254.358C63.879 252.528 66.819 249.048 66.819 244.698V242.778ZM58.359 242.778H69.609V245.958H58.359V242.778ZM70.659 257.238C76.299 257.238 80.049 259.398 80.049 262.878C80.049 266.358 76.299 268.548 70.659 268.548C65.019 268.548 61.269 266.358 61.269 262.878C61.269 259.398 65.019 257.238 70.659 257.238ZM70.659 260.298C67.269 260.298 65.229 261.168 65.229 262.878C65.229 264.588 67.269 265.428 70.659 265.428C74.079 265.428 76.119 264.588 76.119 262.878C76.119 261.168 74.079 260.298 70.659 260.298ZM94.7766 256.158H98.7666V260.388H94.7766V256.158ZM84.2166 253.878H109.327V257.028H84.2166V253.878ZM86.4066 241.638H107.107V244.818H86.4066V241.638ZM86.6166 248.988H106.897V252.168H86.6166V248.988ZM89.9466 242.808H93.9366V251.058H89.9466V242.808ZM99.5766 242.808H103.567V251.058H99.5766V242.808ZM87.1266 259.338H106.327V268.368H87.1266V259.338ZM102.427 262.428H91.0566V265.218H102.427V262.428ZM122.914 251.118H127.474V254.328H122.914V251.118ZM131.884 240.888H135.694V268.668H131.884V240.888ZM126.214 241.308H129.964V267.408H126.214V241.308ZM118.054 242.838C121.744 242.838 124.114 246.648 124.114 252.918C124.114 259.218 121.744 263.028 118.054 263.028C114.394 263.028 112.054 259.218 112.054 252.918C112.054 246.648 114.394 242.838 118.054 242.838ZM118.054 246.588C116.554 246.588 115.684 248.688 115.684 252.918C115.684 257.178 116.554 259.248 118.054 259.248C119.614 259.248 120.484 257.178 120.484 252.918C120.484 248.688 119.614 246.588 118.054 246.588ZM163.269 240.888H167.289V256.908H163.269V240.888ZM166.119 247.458H170.919V250.698H166.119V247.458ZM158.169 257.418C163.869 257.418 167.559 259.548 167.559 263.058C167.559 266.598 163.869 268.698 158.169 268.698C152.439 268.698 148.749 266.598 148.749 263.058C148.749 259.548 152.439 257.418 158.169 257.418ZM158.169 260.598C154.629 260.598 152.679 261.378 152.679 263.058C152.679 264.708 154.629 265.518 158.169 265.518C161.679 265.518 163.629 264.708 163.629 263.058C163.629 261.378 161.679 260.598 158.169 260.598ZM146.319 252.288H148.629C154.749 252.288 157.779 252.138 161.109 251.418L161.499 254.598C158.109 255.348 154.899 255.468 148.629 255.468H146.319V252.288ZM146.319 242.748H158.739V245.928H150.279V254.448H146.319V242.748ZM179.197 245.778H182.407V246.798C182.407 251.538 179.917 255.738 174.607 257.238L172.747 254.148C177.247 252.918 179.197 249.858 179.197 246.798V245.778ZM179.947 245.778H183.187V246.798C183.187 249.648 185.167 252.498 189.637 253.668L187.837 256.788C182.497 255.378 179.947 251.358 179.947 246.798V245.778ZM173.737 243.648H188.647V246.768H173.737V243.648ZM179.197 240.798H183.187V244.998H179.197V240.798ZM187.987 248.148H193.267V251.358H187.987V248.148ZM192.217 240.888H196.207V257.148H192.217V240.888ZM177.697 258.378H196.207V268.368H177.697V258.378ZM192.307 261.498H181.627V265.218H192.307V261.498ZM202.444 252.138H216.964V255.318H202.444V252.138ZM207.664 254.718H211.684V260.568H207.664V254.718ZM202.444 243.348H216.784V246.498H206.434V253.128H202.444V243.348ZM219.754 240.858H223.744V268.728H219.754V240.858ZM201.154 263.238L200.674 260.028C205.984 260.028 212.524 259.998 218.224 259.368L218.524 262.278C212.524 263.208 206.314 263.268 201.154 263.238ZM242.942 243.648H248.492V246.828H242.942V243.648ZM242.942 248.838H248.492V251.988H242.942V248.838ZM247.412 240.888H251.402V256.848H247.412V240.888ZM234.512 241.878H237.782V244.398C237.782 250.098 235.412 255.108 230.162 257.058L227.972 253.938C232.622 252.288 234.512 248.388 234.512 244.398V241.878ZM235.292 241.878H238.532V244.398C238.532 248.208 240.332 251.988 244.742 253.608L242.522 256.758C237.542 254.808 235.292 249.918 235.292 244.398V241.878ZM234.722 257.898H237.722V258.558C237.722 262.788 235.892 266.718 231.542 268.308L229.592 265.398C233.222 264.138 234.722 261.318 234.722 258.558V257.898ZM235.742 257.898H238.622V258.558C238.622 261.318 239.942 264.228 243.392 265.668L241.742 268.578C237.332 266.928 235.742 262.698 235.742 258.558V257.898ZM244.862 257.898H247.712V258.558C247.712 262.428 246.092 266.838 241.742 268.578L240.092 265.668C243.512 264.078 244.862 261.048 244.862 258.558V257.898ZM245.792 257.898H248.792V258.558C248.792 261.498 250.262 264.228 253.982 265.398L251.972 268.308C247.592 266.778 245.792 262.998 245.792 258.558V257.898ZM263.37 242.808C267.51 242.808 270.54 246.648 270.54 252.708C270.54 258.828 267.51 262.668 263.37 262.668C259.2 262.668 256.2 258.828 256.2 252.708C256.2 246.648 259.2 242.808 263.37 242.808ZM263.37 246.438C261.36 246.438 260.01 248.628 260.01 252.708C260.01 256.848 261.36 259.068 263.37 259.068C265.41 259.068 266.73 256.848 266.73 252.708C266.73 248.628 265.41 246.438 263.37 246.438ZM275.1 240.858H279.06V268.728H275.1V240.858ZM269.37 250.878H276.78V254.088H269.37V250.878ZM288.897 254.988H292.857V262.788H288.897V254.988ZM298.977 254.988H302.967V262.788H298.977V254.988ZM283.377 262.218H308.517V265.458H283.377V262.218ZM295.917 242.238C301.887 242.238 306.297 245.178 306.297 249.708C306.297 254.238 301.887 257.148 295.917 257.148C289.917 257.148 285.537 254.238 285.537 249.708C285.537 245.178 289.917 242.238 295.917 242.238ZM295.917 245.358C292.047 245.358 289.467 246.948 289.467 249.708C289.467 252.438 292.047 254.058 295.917 254.058C299.787 254.058 302.367 252.438 302.367 249.708C302.367 246.948 299.787 245.358 295.917 245.358ZM312.646 258.893L312.294 244.86H316.688L316.337 258.893H312.646ZM314.491 266.174C313.158 266.174 312.104 265.163 312.104 263.874C312.104 262.585 313.158 261.574 314.491 261.574C315.824 261.574 316.879 262.585 316.879 263.874C316.879 265.163 315.824 266.174 314.491 266.174Z" fill="#222227"/>
<path d="M142.147 179.999V170.135H146.221C148.436 170.135 149.749 171.311 149.749 173.293V173.307C149.749 174.606 149.058 175.686 147.965 176.116L150.043 179.999H147.705L145.866 176.424H144.212V179.999H142.147ZM144.212 174.859H145.996C147.021 174.859 147.636 174.277 147.636 173.307V173.293C147.636 172.35 146.987 171.748 145.969 171.748H144.212V174.859ZM150.487 179.999L153.932 170.135H156.359L159.798 179.999H157.631L156.886 177.607H153.399L152.654 179.999H150.487ZM155.122 172.049L153.878 176.062H156.407L155.163 172.049H155.122ZM160.809 179.999V170.135H162.614L167.071 176.547H167.112V170.135H169.17V179.999H167.379L162.908 173.539H162.867V179.999H160.809ZM170.817 179.999V170.135H174.584C177.537 170.135 179.287 171.892 179.287 175.016V175.029C179.287 178.16 177.544 179.999 174.584 179.999H170.817ZM172.882 178.29H174.338C176.183 178.29 177.181 177.169 177.181 175.036V175.023C177.181 172.965 176.149 171.837 174.338 171.837H172.882V178.29ZM185.07 180.17C182.137 180.17 180.312 178.208 180.312 175.07V175.057C180.312 171.919 182.151 169.964 185.07 169.964C187.996 169.964 189.828 171.926 189.828 175.057V175.07C189.828 178.208 188.003 180.17 185.07 180.17ZM185.07 178.42C186.711 178.42 187.722 177.114 187.722 175.07V175.057C187.722 172.999 186.69 171.714 185.07 171.714C183.457 171.714 182.418 172.992 182.418 175.057V175.07C182.418 177.135 183.45 178.42 185.07 178.42ZM191.161 179.999V170.135H193.547L196.349 177.224H196.39L199.193 170.135H201.579V179.999H199.74V173.327H199.678L197.019 179.999H195.72L193.054 173.327H193V179.999H191.161ZM205.995 179.999V170.135H210.288C212.147 170.135 213.316 171.092 213.316 172.609V172.623C213.316 173.703 212.496 174.626 211.409 174.77V174.811C212.783 174.913 213.774 175.884 213.774 177.176V177.19C213.774 178.919 212.469 179.999 210.363 179.999H205.995ZM209.755 171.666H208.059V174.257H209.502C210.664 174.257 211.286 173.772 211.286 172.917V172.903C211.286 172.117 210.719 171.666 209.755 171.666ZM209.748 175.658H208.059V178.461H209.837C211.019 178.461 211.669 177.976 211.669 177.06V177.046C211.669 176.144 211.012 175.658 209.748 175.658ZM219.4 180.17C216.468 180.17 214.642 178.208 214.642 175.07V175.057C214.642 171.919 216.481 169.964 219.4 169.964C222.326 169.964 224.158 171.926 224.158 175.057V175.07C224.158 178.208 222.333 180.17 219.4 180.17ZM219.4 178.42C221.041 178.42 222.052 177.114 222.052 175.07V175.057C222.052 172.999 221.02 171.714 219.4 171.714C217.787 171.714 216.748 172.992 216.748 175.057V175.07C216.748 177.135 217.78 178.42 219.4 178.42ZM224.377 179.999L227.514 175.029V175.009L224.397 170.135H226.824L228.923 173.69H228.998L231.083 170.135H233.386L230.153 175.043V175.07L233.345 179.999H230.994L228.827 176.54H228.759L226.605 179.999H224.377Z" fill="#134CFF"/>
<g filter="url(#filter0_d_1010_11396)">
<path d="M329.998 316.997C337.178 316.997 342.998 322.817 342.998 329.997V479.999C338.028 480 334 484.029 334 488.999C334 493.969 338.028 497.997 342.998 497.998V535.997C342.998 543.177 337.178 548.997 329.998 548.997H44.998C37.8184 548.997 31.9981 543.177 31.998 535.997V497.998C36.9673 497.997 40.9951 493.969 40.9951 488.999C40.995 484.029 36.9672 480.001 31.998 479.999V329.997C31.998 322.817 37.8183 316.997 44.998 316.997H329.998Z" fill="white"/>
</g>
<line x1="50.5" y1="489.5" x2="325.5" y2="489.5" stroke="#E2E2E9" stroke-width="3" stroke-linecap="round" stroke-dasharray="1 10"/>
<rect x="164.507" y="308.5" width="47" height="27" rx="7.5" fill="white"/>
<rect x="164.507" y="308.5" width="47" height="27" rx="7.5" stroke="#E2E2E9"/>
<path d="M178.272 327.171C175.326 327.171 173.521 325.25 173.521 322.037V322.03C173.521 318.872 175.333 316.965 178.225 316.965C180.597 316.965 182.21 318.346 182.538 320.198L182.559 320.294H180.487L180.46 320.226C180.132 319.269 179.346 318.715 178.231 318.715C176.604 318.715 175.627 319.918 175.627 322.01V322.017C175.627 324.156 176.666 325.421 178.307 325.421C179.653 325.421 180.576 324.621 180.631 323.404L180.638 323.261H178.382V321.723H182.647V322.857C182.647 325.544 181.021 327.171 178.272 327.171ZM184.015 327V317.136H186.079V327H184.015ZM187.72 327V317.136H194.18V318.838H189.784V321.483H193.797V323.117H189.784V327H187.72ZM197.762 327V318.838H194.911V317.136H202.684V318.838H199.826V327H197.762Z" fill="#222227"/>
<path d="M93.0031 366.973C94.0111 366.973 94.9141 367.176 95.7121 367.582C96.5101 367.988 97.1401 368.548 97.6021 369.262C98.0641 369.962 98.2951 370.774 98.2951 371.698C98.2951 372.608 98.0641 373.42 97.6021 374.134C97.1401 374.834 96.5101 375.387 95.7121 375.793C94.9141 376.199 94.0111 376.402 93.0031 376.402C92.0091 376.402 91.1131 376.199 90.3151 375.793C89.5171 375.387 88.8871 374.834 88.4251 374.134C87.9631 373.42 87.7321 372.608 87.7321 371.698C87.7321 370.774 87.9631 369.962 88.4251 369.262C88.8871 368.548 89.5171 367.988 90.3151 367.582C91.1131 367.176 92.0091 366.973 93.0031 366.973ZM93.0031 369.304C92.5271 369.304 92.0931 369.402 91.7011 369.598C91.3091 369.78 91.0011 370.053 90.7771 370.417C90.5671 370.767 90.4621 371.194 90.4621 371.698C90.4621 372.188 90.5671 372.615 90.7771 372.979C91.0011 373.329 91.3091 373.595 91.7011 373.777C92.0931 373.959 92.5271 374.05 93.0031 374.05C93.5071 374.05 93.9481 373.959 94.3261 373.777C94.7041 373.595 95.0051 373.329 95.2291 372.979C95.4531 372.615 95.5651 372.188 95.5651 371.698C95.5651 371.194 95.4531 370.767 95.2291 370.417C95.0051 370.053 94.7041 369.78 94.3261 369.598C93.9481 369.402 93.5071 369.304 93.0031 369.304ZM100.101 365.923H102.894V377.263H100.101V365.923ZM102.138 370.291H105.477V372.58H102.138V370.291ZM96.5521 377.662C97.8961 377.662 99.0581 377.816 100.038 378.124C101.032 378.432 101.795 378.873 102.327 379.447C102.859 380.021 103.125 380.714 103.125 381.526C103.125 382.324 102.859 383.01 102.327 383.584C101.795 384.158 101.032 384.599 100.038 384.907C99.0581 385.215 97.8961 385.369 96.5521 385.369C95.2081 385.369 94.0391 385.215 93.0451 384.907C92.0651 384.599 91.3021 384.158 90.7561 383.584C90.2241 383.01 89.9581 382.324 89.9581 381.526C89.9581 380.714 90.2241 380.021 90.7561 379.447C91.3021 378.873 92.0651 378.432 93.0451 378.124C94.0391 377.816 95.2081 377.662 96.5521 377.662ZM96.5521 379.867C95.7261 379.867 95.0331 379.93 94.4731 380.056C93.9131 380.168 93.4861 380.343 93.1921 380.581C92.8981 380.819 92.7511 381.134 92.7511 381.526C92.7511 381.89 92.8981 382.198 93.1921 382.45C93.4861 382.702 93.9131 382.891 94.4731 383.017C95.0331 383.129 95.7261 383.185 96.5521 383.185C97.3781 383.185 98.0711 383.129 98.6311 383.017C99.2051 382.891 99.6321 382.702 99.9121 382.45C100.206 382.198 100.353 381.89 100.353 381.526C100.353 381.134 100.206 380.819 99.9121 380.581C99.6321 380.343 99.2051 380.168 98.6311 380.056C98.0711 379.93 97.3781 379.867 96.5521 379.867ZM106.903 377.452H124.522V379.72H106.903V377.452ZM114.295 378.229H117.088V385.39H114.295V378.229ZM109.087 373.84H122.674V376.045H109.087V373.84ZM109.087 366.679H122.485V368.863H111.859V374.344H109.087V366.679ZM111.061 370.27H122.065V372.391H111.061V370.27ZM131.451 367.246C132.445 367.246 133.32 367.533 134.076 368.107C134.846 368.667 135.448 369.472 135.882 370.522C136.33 371.558 136.554 372.783 136.554 374.197C136.554 375.625 136.33 376.864 135.882 377.914C135.448 378.95 134.846 379.755 134.076 380.329C133.32 380.889 132.445 381.169 131.451 381.169C130.457 381.169 129.575 380.889 128.805 380.329C128.035 379.755 127.426 378.95 126.978 377.914C126.544 376.864 126.327 375.625 126.327 374.197C126.327 372.783 126.544 371.558 126.978 370.522C127.426 369.472 128.035 368.667 128.805 368.107C129.575 367.533 130.457 367.246 131.451 367.246ZM131.451 369.787C130.975 369.787 130.548 369.955 130.17 370.291C129.806 370.627 129.519 371.124 129.309 371.782C129.113 372.426 129.015 373.231 129.015 374.197C129.015 375.149 129.113 375.961 129.309 376.633C129.519 377.291 129.806 377.788 130.17 378.124C130.548 378.46 130.975 378.628 131.451 378.628C131.927 378.628 132.347 378.46 132.711 378.124C133.075 377.788 133.355 377.291 133.551 376.633C133.761 375.961 133.866 375.149 133.866 374.197C133.866 373.231 133.761 372.426 133.551 371.782C133.355 371.124 133.075 370.627 132.711 370.291C132.347 369.955 131.927 369.787 131.451 369.787ZM138.654 365.923H141.468V385.369H138.654V365.923ZM140.859 373.252H144.282V375.541H140.859V373.252ZM152.911 371.782H155.704V374.47H152.911V371.782ZM152.89 366.07H155.284V366.448C155.284 367.148 155.165 367.799 154.927 368.401C154.703 369.003 154.374 369.556 153.94 370.06C153.506 370.55 152.967 370.991 152.323 371.383C151.679 371.761 150.937 372.083 150.097 372.349C149.271 372.601 148.361 372.783 147.367 372.895L146.422 370.774C147.318 370.676 148.116 370.536 148.816 370.354C149.516 370.158 150.118 369.927 150.622 369.661C151.14 369.381 151.567 369.073 151.903 368.737C152.239 368.387 152.484 368.023 152.638 367.645C152.806 367.253 152.89 366.854 152.89 366.448V366.07ZM153.352 366.07H155.725V366.448C155.725 366.854 155.809 367.253 155.977 367.645C156.145 368.023 156.39 368.387 156.712 368.737C157.048 369.073 157.475 369.381 157.993 369.661C158.511 369.927 159.113 370.158 159.799 370.354C160.499 370.536 161.304 370.676 162.214 370.774L161.269 372.895C160.261 372.783 159.337 372.601 158.497 372.349C157.671 372.083 156.936 371.761 156.292 371.383C155.662 370.991 155.123 370.55 154.675 370.06C154.241 369.556 153.912 369.003 153.688 368.401C153.464 367.799 153.352 367.148 153.352 366.448V366.07ZM145.54 373.819H163.138V376.024H145.54V373.819ZM147.556 377.011H160.996V382.03H150.349V383.731H147.577V380.098H158.245V379.09H147.556V377.011ZM147.577 383.122H161.521V385.243H147.577V383.122ZM165.405 378.544H166.791C167.967 378.544 169.094 378.516 170.172 378.46C171.264 378.39 172.412 378.257 173.616 378.061L173.847 380.308C172.615 380.532 171.432 380.672 170.298 380.728C169.178 380.784 168.009 380.812 166.791 380.812H165.405V378.544ZM165.363 367.834H172.251V375.268H168.114V379.405H165.405V373.063H169.563V370.039H165.363V367.834ZM178.908 365.902H181.575V385.348H178.908V365.902ZM173.049 372.517H176.052V374.806H173.049V372.517ZM174.96 366.259H177.543V384.424H174.96V366.259ZM190.167 367.687H202.473V369.913H190.167V367.687ZM188.361 380.56H205.959V382.828H188.361V380.56ZM201.003 367.687H203.796V369.997C203.796 370.907 203.782 371.831 203.754 372.769C203.74 373.707 203.684 374.708 203.586 375.772C203.502 376.836 203.334 378.04 203.082 379.384L200.289 379.132C200.541 377.886 200.709 376.738 200.793 375.688C200.891 374.638 200.947 373.651 200.961 372.727C200.989 371.789 201.003 370.879 201.003 369.997V367.687ZM208.624 373.483H210.304C211.368 373.483 212.32 373.483 213.16 373.483C214.014 373.469 214.791 373.448 215.491 373.42C216.191 373.378 216.856 373.329 217.486 373.273C218.13 373.217 218.774 373.133 219.418 373.021L219.691 375.142C218.809 375.282 217.92 375.387 217.024 375.457C216.142 375.527 215.162 375.576 214.084 375.604C213.02 375.618 211.76 375.625 210.304 375.625H208.624V373.483ZM208.603 366.805H217.696V372.139H211.375V374.512H208.624V370.186H214.924V368.905H208.603V366.805ZM210.871 376.759H223.828V381.904H213.727V383.983H210.892V379.951H220.972V378.838H210.871V376.759ZM210.892 383.122H224.311V385.243H210.892V383.122ZM221.035 365.923H223.828V376.045H221.035V365.923ZM240.354 365.923H243.147V377.725H240.354V365.923ZM228.006 374.701H229.686C230.96 374.701 232.101 374.687 233.109 374.659C234.117 374.631 235.076 374.575 235.986 374.491C236.896 374.407 237.813 374.295 238.737 374.155L239.052 376.381C238.1 376.535 237.148 376.654 236.196 376.738C235.258 376.822 234.264 376.878 233.214 376.906C232.164 376.934 230.988 376.948 229.686 376.948H228.006V374.701ZM227.964 367.057H236.931V372.979H230.736V375.94H228.006V370.921H234.159V369.283H227.964V367.057ZM236.616 378.061C238.674 378.061 240.298 378.383 241.488 379.027C242.678 379.657 243.273 380.553 243.273 381.715C243.273 382.877 242.678 383.78 241.488 384.424C240.298 385.068 238.674 385.39 236.616 385.39C234.558 385.39 232.934 385.068 231.744 384.424C230.554 383.78 229.959 382.877 229.959 381.715C229.959 380.553 230.554 379.657 231.744 379.027C232.934 378.383 234.558 378.061 236.616 378.061ZM236.616 380.245C235.762 380.245 235.048 380.301 234.474 380.413C233.9 380.511 233.466 380.672 233.172 380.896C232.878 381.106 232.731 381.379 232.731 381.715C232.731 382.065 232.878 382.352 233.172 382.576C233.466 382.786 233.9 382.947 234.474 383.059C235.048 383.157 235.762 383.206 236.616 383.206C237.47 383.206 238.184 383.157 238.758 383.059C239.332 382.947 239.759 382.786 240.039 382.576C240.333 382.352 240.48 382.065 240.48 381.715C240.48 381.379 240.333 381.106 240.039 380.896C239.759 380.672 239.332 380.511 238.758 380.413C238.184 380.301 237.47 380.245 236.616 380.245ZM263.814 365.902H266.628V385.348H263.814V365.902ZM255.246 370.963H257.472V371.971C257.472 372.993 257.353 374.008 257.115 375.016C256.891 376.01 256.548 376.948 256.086 377.83C255.638 378.712 255.071 379.496 254.385 380.182C253.713 380.854 252.936 381.386 252.054 381.778L250.563 379.615C251.361 379.265 252.047 378.81 252.621 378.25C253.209 377.676 253.699 377.046 254.091 376.36C254.483 375.674 254.77 374.953 254.952 374.197C255.148 373.441 255.246 372.699 255.246 371.971V370.963ZM255.876 370.963H258.039V371.971C258.039 372.657 258.137 373.364 258.333 374.092C258.529 374.82 258.823 375.52 259.215 376.192C259.607 376.85 260.097 377.452 260.685 377.998C261.287 378.53 261.987 378.971 262.785 379.321L261.315 381.442C260.419 381.078 259.628 380.567 258.942 379.909C258.27 379.251 257.703 378.495 257.241 377.641C256.779 376.787 256.436 375.877 256.212 374.911C255.988 373.945 255.876 372.965 255.876 371.971V370.963ZM251.214 369.073H262.008V371.278H251.214V369.073ZM255.246 366.364H258.06V370.228H255.246V366.364ZM269.798 380.77H287.417V383.038H269.798V380.77ZM277.106 368.611H279.479V369.703C279.479 370.529 279.36 371.313 279.122 372.055C278.898 372.797 278.562 373.49 278.114 374.134C277.68 374.764 277.141 375.338 276.497 375.856C275.853 376.36 275.118 376.794 274.292 377.158C273.466 377.522 272.563 377.795 271.583 377.977L270.47 375.73C271.338 375.59 272.122 375.38 272.822 375.1C273.536 374.82 274.159 374.484 274.691 374.092C275.223 373.7 275.664 373.273 276.014 372.811C276.378 372.335 276.651 371.838 276.833 371.32C277.015 370.788 277.106 370.249 277.106 369.703V368.611ZM277.694 368.611H280.046V369.703C280.046 370.249 280.137 370.781 280.319 371.299C280.501 371.817 280.774 372.314 281.138 372.79C281.502 373.252 281.95 373.679 282.482 374.071C283.028 374.449 283.658 374.778 284.372 375.058C285.1 375.324 285.905 375.52 286.787 375.646L285.695 377.872C284.687 377.69 283.763 377.424 282.923 377.074C282.097 376.724 281.355 376.297 280.697 375.793C280.053 375.289 279.507 374.722 279.059 374.092C278.611 373.462 278.268 372.783 278.03 372.055C277.806 371.313 277.694 370.529 277.694 369.703V368.611ZM271.247 367.54H285.905V369.766H271.247V367.54Z" fill="#134CFF"/>
<path d="M73.2565 404.308H81.1765V406.004H73.2565V404.308ZM73.0965 412.052L72.8725 410.324C73.7152 410.324 74.6325 410.319 75.6245 410.308C76.6272 410.287 77.6512 410.249 78.6965 410.196C79.7418 410.132 80.7392 410.041 81.6885 409.924L81.8165 411.476C80.8565 411.647 79.8592 411.775 78.8245 411.86C77.7898 411.935 76.7818 411.988 75.8005 412.02C74.8192 412.041 73.9178 412.052 73.0965 412.052ZM74.4245 405.62H76.4725V410.66H74.4245V405.62ZM77.9605 405.62H80.0085V410.66H77.9605V405.62ZM82.4885 403.108H84.6165V414.02H82.4885V403.108ZM84.0245 407.284H86.5845V409.028H84.0245V407.284ZM75.0645 415.956H85.1445V417.668H75.0645V415.956ZM75.0645 412.996H77.2085V416.404H75.0645V412.996ZM88.9833 404.356H98.3593V406.052H88.9833V404.356ZM87.6873 414.404H101.095V416.132H87.6873V414.404ZM90.5033 409.748H92.5993V414.964H90.5033V409.748ZM97.7513 404.356H99.8793V405.796C99.8793 406.393 99.8686 407.033 99.8473 407.716C99.8366 408.388 99.7939 409.129 99.7193 409.94C99.6553 410.751 99.5379 411.652 99.3673 412.644L97.2553 412.436C97.5006 411.028 97.6446 409.791 97.6873 408.724C97.7299 407.647 97.7513 406.671 97.7513 405.796V404.356ZM94.1673 409.748H96.2473V414.964H94.1673V409.748ZM115.834 403.108H117.978V414.388H115.834V403.108ZM113.914 406.788H116.634V408.484H113.914V406.788ZM113.914 409.956H116.634V411.652H113.914V409.956ZM105.61 404.66H113.754V406.324H105.61V404.66ZM109.77 406.852C110.453 406.852 111.055 406.975 111.578 407.22C112.101 407.465 112.511 407.807 112.81 408.244C113.109 408.681 113.258 409.188 113.258 409.764C113.258 410.329 113.109 410.831 112.81 411.268C112.511 411.705 112.101 412.052 111.578 412.308C111.055 412.553 110.453 412.676 109.77 412.676C109.109 412.676 108.511 412.553 107.978 412.308C107.455 412.052 107.045 411.705 106.746 411.268C106.447 410.831 106.298 410.329 106.298 409.764C106.298 409.188 106.447 408.681 106.746 408.244C107.045 407.807 107.455 407.465 107.978 407.22C108.511 406.975 109.109 406.852 109.77 406.852ZM109.786 408.484C109.349 408.484 108.991 408.596 108.714 408.82C108.447 409.033 108.314 409.348 108.314 409.764C108.314 410.169 108.447 410.484 108.714 410.708C108.991 410.932 109.349 411.044 109.786 411.044C110.213 411.044 110.565 410.932 110.842 410.708C111.119 410.484 111.258 410.169 111.258 409.764C111.258 409.348 111.119 409.033 110.842 408.82C110.565 408.596 110.213 408.484 109.786 408.484ZM108.714 403.06H110.858V405.684H108.714V403.06ZM108.17 415.956H118.298V417.668H108.17V415.956ZM108.17 413.46H110.298V416.756H108.17V413.46ZM130.985 403.092H133.017V417.908H130.985V403.092ZM129.017 408.804H131.481V410.516H129.017V408.804ZM127.673 403.348H129.641V417.22H127.673V403.348ZM120.713 412.82H121.737C122.355 412.82 122.942 412.815 123.497 412.804C124.051 412.783 124.601 412.745 125.145 412.692C125.699 412.628 126.265 412.548 126.841 412.452L127.017 414.18C126.419 414.287 125.838 414.372 125.273 414.436C124.707 414.5 124.137 414.543 123.561 414.564C122.985 414.575 122.377 414.58 121.737 414.58H120.713V412.82ZM120.713 404.82H126.169V406.532H122.809V413.668H120.713V404.82ZM135.527 404.036H137.527V406.132H139.415V404.036H141.383V411.22H135.527V404.036ZM137.527 407.748V409.54H139.415V407.748H137.527ZM145.607 403.108H147.639V412.02H145.607V403.108ZM143.847 406.724H146.199V408.436H143.847V406.724ZM142.487 403.364H144.471V411.972H142.487V403.364ZM137.447 412.708H147.639V417.924H145.511V414.388H137.447V412.708ZM153.158 411.876H155.286V414.26H153.158V411.876ZM159.382 403.108H161.51V417.924H159.382V403.108ZM160.774 409.124H163.382V410.868H160.774V409.124ZM149.83 415.46L149.574 413.732C150.427 413.732 151.361 413.727 152.374 413.716C153.398 413.705 154.443 413.668 155.51 413.604C156.587 413.54 157.627 413.444 158.63 413.316L158.79 414.852C157.755 415.044 156.705 415.188 155.638 415.284C154.571 415.369 153.542 415.423 152.55 415.444C151.569 415.455 150.662 415.46 149.83 415.46ZM149.846 404.724H158.566V406.388H149.846V404.724ZM154.214 406.98C154.929 406.98 155.558 407.097 156.102 407.332C156.646 407.567 157.073 407.892 157.382 408.308C157.691 408.724 157.846 409.209 157.846 409.764C157.846 410.308 157.691 410.793 157.382 411.22C157.073 411.636 156.646 411.961 156.102 412.196C155.558 412.431 154.929 412.548 154.214 412.548C153.51 412.548 152.886 412.431 152.342 412.196C151.798 411.961 151.371 411.636 151.062 411.22C150.753 410.793 150.598 410.308 150.598 409.764C150.598 409.209 150.753 408.724 151.062 408.308C151.371 407.892 151.798 407.567 152.342 407.332C152.886 407.097 153.51 406.98 154.214 406.98ZM154.214 408.58C153.734 408.58 153.345 408.687 153.046 408.9C152.758 409.103 152.614 409.391 152.614 409.764C152.614 410.148 152.758 410.441 153.046 410.644C153.345 410.847 153.734 410.948 154.214 410.948C154.705 410.948 155.094 410.847 155.382 410.644C155.681 410.441 155.83 410.148 155.83 409.764C155.83 409.391 155.681 409.103 155.382 408.9C155.094 408.687 154.705 408.58 154.214 408.58ZM153.158 403.172H155.286V405.972H153.158V403.172ZM172.469 406.5H175.269V408.228H172.469V406.5ZM174.709 403.108H176.853V411.668H174.709V403.108ZM166.965 412.26H176.853V417.764H166.965V412.26ZM174.757 413.924H169.061V416.084H174.757V413.924ZM167.877 404.468H169.605V405.412C169.605 406.34 169.456 407.225 169.157 408.068C168.858 408.911 168.4 409.652 167.781 410.292C167.173 410.921 166.389 411.391 165.429 411.7L164.373 410.02C164.981 409.817 165.504 409.556 165.941 409.236C166.389 408.905 166.752 408.532 167.029 408.116C167.317 407.7 167.53 407.263 167.669 406.804C167.808 406.345 167.877 405.881 167.877 405.412V404.468ZM168.325 404.468H170.021V405.396C170.021 405.972 170.138 406.548 170.373 407.124C170.608 407.689 170.97 408.201 171.461 408.66C171.962 409.119 172.602 409.481 173.381 409.748L172.341 411.412C171.424 411.103 170.666 410.644 170.069 410.036C169.482 409.428 169.045 408.724 168.757 407.924C168.469 407.124 168.325 406.281 168.325 405.396V404.468ZM164.949 403.844H172.917V405.54H164.949V403.844ZM182.632 403.988H190.552V405.684H182.632V403.988ZM182.472 411.044L182.248 409.332C183.08 409.332 183.997 409.321 185 409.3C186.002 409.279 187.026 409.241 188.072 409.188C189.117 409.135 190.114 409.044 191.064 408.916L191.192 410.468C190.221 410.639 189.218 410.767 188.184 410.852C187.16 410.927 186.157 410.98 185.176 411.012C184.194 411.033 183.293 411.044 182.472 411.044ZM183.799 405.188H185.848V410.084H183.799V405.188ZM187.336 405.188H189.384V410.084H187.336V405.188ZM191.864 403.108H193.992V411.348H191.864V403.108ZM193.416 406.276H195.96V408.02H193.416V406.276ZM184.328 411.892H186.44V413.172H191.896V411.892H193.992V417.764H184.328V411.892ZM186.44 414.804V416.052H191.896V414.804H186.44ZM204.55 406.372H208.262V408.084H204.55V406.372ZM201.142 403.716C201.889 403.716 202.556 403.871 203.142 404.18C203.74 404.479 204.209 404.895 204.55 405.428C204.892 405.951 205.062 406.559 205.062 407.252C205.062 407.935 204.892 408.543 204.55 409.076C204.209 409.609 203.74 410.031 203.142 410.34C202.556 410.639 201.889 410.788 201.142 410.788C200.406 410.788 199.74 410.639 199.142 410.34C198.556 410.031 198.092 409.609 197.75 409.076C197.409 408.543 197.238 407.935 197.238 407.252C197.238 406.559 197.409 405.951 197.75 405.428C198.092 404.895 198.556 404.479 199.142 404.18C199.74 403.871 200.406 403.716 201.142 403.716ZM201.142 405.476C200.78 405.476 200.454 405.545 200.166 405.684C199.889 405.823 199.67 406.025 199.51 406.292C199.35 406.559 199.27 406.879 199.27 407.252C199.27 407.615 199.35 407.929 199.51 408.196C199.67 408.463 199.889 408.665 200.166 408.804C200.454 408.943 200.78 409.012 201.142 409.012C201.505 409.012 201.825 408.943 202.102 408.804C202.39 408.665 202.614 408.463 202.774 408.196C202.934 407.929 203.014 407.615 203.014 407.252C203.014 406.879 202.934 406.559 202.774 406.292C202.614 406.025 202.39 405.823 202.102 405.684C201.825 405.545 201.505 405.476 201.142 405.476ZM207.318 403.108H209.462V411.06H207.318V403.108ZM199.622 411.716H201.734V413.108H207.35V411.716H209.462V417.764H199.622V411.716ZM201.734 414.74V416.068H207.35V414.74H201.734ZM217.285 403.956H219.125V405.028C219.125 405.668 219.034 406.292 218.853 406.9C218.682 407.497 218.426 408.063 218.085 408.596C217.744 409.129 217.322 409.615 216.821 410.052C216.33 410.479 215.765 410.847 215.125 411.156C214.485 411.465 213.781 411.695 213.013 411.844L212.101 410.068C212.762 409.951 213.365 409.775 213.909 409.54C214.464 409.295 214.949 409.001 215.365 408.66C215.781 408.319 216.133 407.951 216.421 407.556C216.709 407.151 216.922 406.735 217.061 406.308C217.21 405.871 217.285 405.444 217.285 405.028V403.956ZM217.701 403.956H219.557V405.028C219.557 405.455 219.626 405.887 219.765 406.324C219.914 406.761 220.128 407.183 220.405 407.588C220.693 407.983 221.045 408.345 221.461 408.676C221.877 409.007 222.357 409.295 222.901 409.54C223.445 409.775 224.058 409.951 224.741 410.068L223.829 411.844C223.061 411.695 222.357 411.465 221.717 411.156C221.077 410.847 220.506 410.479 220.005 410.052C219.514 409.625 219.093 409.145 218.741 408.612C218.4 408.079 218.138 407.508 217.957 406.9C217.786 406.292 217.701 405.668 217.701 405.028V403.956ZM211.781 414.372H225.205V416.116H211.781V414.372ZM228.068 410.436H238.484V412.116H228.068V410.436ZM226.5 414.58H239.924V416.292H226.5V414.58ZM232.132 411.284H234.26V415.332H232.132V411.284ZM228.068 404.1H238.372V405.812H230.228V411.06H228.068V404.1ZM229.572 407.252H238.036V408.9H229.572V407.252ZM245.266 404.116C246.003 404.116 246.659 404.335 247.235 404.772C247.821 405.199 248.275 405.812 248.595 406.612C248.925 407.401 249.091 408.335 249.091 409.412C249.091 410.5 248.925 411.444 248.595 412.244C248.275 413.033 247.821 413.647 247.235 414.084C246.659 414.511 246.003 414.724 245.266 414.724C244.531 414.724 243.875 414.511 243.299 414.084C242.723 413.647 242.269 413.033 241.939 412.244C241.608 411.444 241.443 410.5 241.443 409.412C241.443 408.335 241.608 407.401 241.939 406.612C242.269 405.812 242.723 405.199 243.299 404.772C243.875 404.335 244.531 404.116 245.266 404.116ZM245.266 406.052C244.915 406.052 244.6 406.18 244.323 406.436C244.056 406.692 243.848 407.071 243.699 407.572C243.549 408.063 243.475 408.676 243.475 409.412C243.475 410.137 243.549 410.756 243.699 411.268C243.848 411.769 244.056 412.148 244.323 412.404C244.6 412.66 244.915 412.788 245.266 412.788C245.64 412.788 245.96 412.66 246.227 412.404C246.493 412.148 246.701 411.769 246.851 411.268C247 410.756 247.075 410.137 247.075 409.412C247.075 408.676 247 408.063 246.851 407.572C246.701 407.071 246.493 406.692 246.227 406.436C245.96 406.18 245.64 406.052 245.266 406.052ZM251.523 403.076H253.651V417.94H251.523V403.076ZM248.467 408.436H252.419V410.132H248.467V408.436ZM261.953 408.9H264.673V409.988H261.953V408.9ZM267.105 403.268H268.385V417.748H267.105V403.268ZM264.225 403.572H265.489V417.012H264.225V403.572ZM259.329 404.484C259.959 404.484 260.503 404.687 260.961 405.092C261.431 405.497 261.793 406.079 262.049 406.836C262.305 407.593 262.433 408.484 262.433 409.508C262.433 410.543 262.305 411.439 262.049 412.196C261.793 412.953 261.431 413.54 260.961 413.956C260.503 414.361 259.959 414.564 259.329 414.564C258.721 414.564 258.183 414.361 257.713 413.956C257.255 413.54 256.897 412.953 256.641 412.196C256.385 411.439 256.257 410.543 256.257 409.508C256.257 408.484 256.385 407.593 256.641 406.836C256.897 406.079 257.255 405.497 257.713 405.092C258.183 404.687 258.721 404.484 259.329 404.484ZM259.329 405.716C258.956 405.716 258.631 405.871 258.353 406.18C258.076 406.489 257.863 406.927 257.713 407.492C257.564 408.057 257.489 408.729 257.489 409.508C257.489 410.287 257.564 410.964 257.713 411.54C257.863 412.105 258.076 412.543 258.353 412.852C258.631 413.161 258.956 413.316 259.329 413.316C259.713 413.316 260.044 413.161 260.321 412.852C260.609 412.543 260.828 412.105 260.977 411.54C261.127 410.964 261.201 410.287 261.201 409.508C261.201 408.729 261.127 408.057 260.977 407.492C260.828 406.927 260.609 406.489 260.321 406.18C260.044 405.871 259.713 405.716 259.329 405.716ZM278.032 408.18H282.048V409.268H278.032V408.18ZM274.528 404.516H275.616V407.108C275.616 407.908 275.515 408.697 275.312 409.476C275.12 410.255 274.843 410.98 274.48 411.652C274.117 412.324 273.691 412.921 273.2 413.444C272.72 413.967 272.192 414.383 271.616 414.692L270.784 413.62C271.317 413.364 271.808 413.007 272.256 412.548C272.715 412.089 273.115 411.567 273.456 410.98C273.797 410.383 274.059 409.759 274.24 409.108C274.432 408.447 274.528 407.78 274.528 407.108V404.516ZM274.8 404.516H275.872V407.108C275.872 407.759 275.963 408.404 276.144 409.044C276.336 409.684 276.603 410.287 276.944 410.852C277.285 411.407 277.68 411.903 278.128 412.34C278.587 412.777 279.077 413.119 279.6 413.364L278.8 414.436C278.224 414.137 277.691 413.737 277.2 413.236C276.709 412.735 276.283 412.159 275.92 411.508C275.568 410.857 275.291 410.159 275.088 409.412C274.896 408.665 274.8 407.897 274.8 407.108V404.516ZM281.392 403.268H282.704V417.764H281.392V403.268ZM294.625 403.78H295.793V404.596C295.793 405.151 295.686 405.673 295.473 406.164C295.259 406.644 294.966 407.087 294.593 407.492C294.23 407.897 293.803 408.26 293.313 408.58C292.822 408.9 292.289 409.167 291.713 409.38C291.147 409.593 290.566 409.748 289.969 409.844L289.425 408.772C289.958 408.697 290.475 408.569 290.977 408.388C291.489 408.207 291.963 407.988 292.401 407.732C292.838 407.465 293.222 407.167 293.553 406.836C293.894 406.505 294.155 406.153 294.337 405.78C294.529 405.396 294.625 405.001 294.625 404.596V403.78ZM294.849 403.78H296.001V404.596C296.001 405.001 296.097 405.391 296.289 405.764C296.481 406.137 296.742 406.489 297.073 406.82C297.414 407.151 297.803 407.449 298.241 407.716C298.678 407.983 299.147 408.207 299.649 408.388C300.161 408.569 300.678 408.697 301.201 408.772L300.673 409.844C300.075 409.748 299.494 409.593 298.929 409.38C298.363 409.156 297.83 408.884 297.329 408.564C296.838 408.244 296.406 407.881 296.033 407.476C295.67 407.071 295.382 406.628 295.169 406.148C294.955 405.657 294.849 405.14 294.849 404.596V403.78ZM294.625 412.244H295.937V417.748H294.625V412.244ZM288.769 411.412H301.841V412.516H288.769V411.412ZM159.471 433.34H160.495C161.444 433.34 162.255 433.335 162.927 433.324C163.609 433.303 164.228 433.271 164.783 433.228C165.348 433.175 165.919 433.095 166.495 432.988L166.623 434.076C166.185 434.151 165.753 434.215 165.327 434.268C164.9 434.311 164.452 434.343 163.983 434.364C163.513 434.385 162.996 434.401 162.431 434.412C161.865 434.423 161.22 434.428 160.495 434.428H159.471V433.34ZM159.439 427.084H165.663V431.164H160.783V434.044H159.471V430.124H164.351V428.172H159.439V427.084ZM169.439 426.284H170.767V435.212H169.439V426.284ZM166.639 428.54H169.759V429.628H166.639V428.54ZM166.639 431.484H169.759V432.572H166.639V431.484ZM166.015 435.484C167.508 435.484 168.681 435.719 169.535 436.188C170.399 436.647 170.831 437.303 170.831 438.156C170.831 438.999 170.399 439.655 169.535 440.124C168.681 440.593 167.508 440.828 166.015 440.828C164.521 440.828 163.343 440.593 162.479 440.124C161.615 439.655 161.183 438.999 161.183 438.156C161.183 437.303 161.615 436.647 162.479 436.188C163.343 435.719 164.521 435.484 166.015 435.484ZM166.015 436.524C165.289 436.524 164.66 436.588 164.127 436.716C163.604 436.844 163.204 437.031 162.927 437.276C162.649 437.511 162.511 437.804 162.511 438.156C162.511 438.497 162.649 438.791 162.927 439.036C163.204 439.281 163.604 439.468 164.127 439.596C164.66 439.724 165.289 439.788 166.015 439.788C166.74 439.788 167.364 439.724 167.887 439.596C168.409 439.468 168.809 439.281 169.087 439.036C169.375 438.791 169.519 438.497 169.519 438.156C169.519 437.804 169.375 437.511 169.087 437.276C168.809 437.031 168.409 436.844 167.887 436.716C167.364 436.588 166.74 436.524 166.015 436.524ZM183.389 426.268H184.701V440.748H183.389V426.268ZM184.397 432.22H187.069V433.34H184.397V432.22ZM173.501 428.588H182.029V429.676H173.501V428.588ZM177.837 430.86C178.52 430.86 179.123 431.004 179.645 431.292C180.179 431.58 180.595 431.975 180.893 432.476C181.203 432.967 181.357 433.537 181.357 434.188C181.357 434.839 181.203 435.415 180.893 435.916C180.595 436.417 180.179 436.812 179.645 437.1C179.123 437.377 178.52 437.516 177.837 437.516C177.155 437.516 176.547 437.377 176.013 437.1C175.491 436.812 175.075 436.417 174.765 435.916C174.456 435.415 174.301 434.839 174.301 434.188C174.301 433.537 174.456 432.967 174.765 432.476C175.075 431.975 175.491 431.58 176.013 431.292C176.547 431.004 177.155 430.86 177.837 430.86ZM177.837 431.964C177.4 431.964 177.011 432.06 176.669 432.252C176.328 432.444 176.056 432.705 175.853 433.036C175.661 433.367 175.565 433.751 175.565 434.188C175.565 434.625 175.661 435.015 175.853 435.356C176.056 435.687 176.328 435.948 176.669 436.14C177.011 436.321 177.4 436.412 177.837 436.412C178.264 436.412 178.648 436.321 178.989 436.14C179.331 435.948 179.597 435.687 179.789 435.356C179.992 435.015 180.093 434.625 180.093 434.188C180.093 433.751 179.992 433.367 179.789 433.036C179.597 432.705 179.331 432.444 178.989 432.252C178.648 432.06 178.264 431.964 177.837 431.964ZM177.149 426.444H178.477V429.068H177.149V426.444ZM193.996 431.452H196.78V432.556H193.996V431.452ZM191.308 427.628H192.348V430.396C192.348 431.143 192.268 431.879 192.108 432.604C191.959 433.329 191.735 434.012 191.436 434.652C191.148 435.292 190.796 435.868 190.38 436.38C189.964 436.892 189.495 437.308 188.972 437.628L188.14 436.636C188.631 436.337 189.073 435.964 189.468 435.516C189.863 435.068 190.193 434.567 190.46 434.012C190.737 433.447 190.945 432.86 191.084 432.252C191.233 431.633 191.308 431.015 191.308 430.396V427.628ZM191.564 427.628H192.588V430.348C192.588 430.924 192.652 431.505 192.78 432.092C192.919 432.668 193.111 433.223 193.356 433.756C193.612 434.279 193.927 434.759 194.3 435.196C194.673 435.633 195.095 435.996 195.564 436.284L194.812 437.308C194.289 436.988 193.825 436.583 193.42 436.092C193.015 435.591 192.673 435.031 192.396 434.412C192.119 433.783 191.911 433.121 191.772 432.428C191.633 431.735 191.564 431.041 191.564 430.348V427.628ZM199.324 426.268H200.604V440.748H199.324V426.268ZM196.38 426.572H197.628V440.012H196.38V426.572ZM206.235 433.724H207.547V438.044H206.235V433.724ZM211.579 433.724H212.907V438.044H211.579V433.724ZM203.019 437.788H216.139V438.892H203.019V437.788ZM209.547 427.18C210.571 427.18 211.477 427.335 212.267 427.644C213.056 427.953 213.675 428.385 214.123 428.94C214.581 429.495 214.811 430.151 214.811 430.908C214.811 431.655 214.581 432.311 214.123 432.876C213.675 433.431 213.056 433.863 212.267 434.172C211.477 434.471 210.571 434.62 209.547 434.62C208.533 434.62 207.627 434.471 206.827 434.172C206.037 433.863 205.419 433.431 204.971 432.876C204.523 432.311 204.299 431.655 204.299 430.908C204.299 430.151 204.523 429.495 204.971 428.94C205.419 428.385 206.037 427.953 206.827 427.644C207.627 427.335 208.533 427.18 209.547 427.18ZM209.547 428.236C208.779 428.236 208.096 428.348 207.499 428.572C206.901 428.796 206.432 429.111 206.091 429.516C205.749 429.911 205.579 430.375 205.579 430.908C205.579 431.441 205.749 431.911 206.091 432.316C206.432 432.711 206.901 433.02 207.499 433.244C208.096 433.468 208.779 433.58 209.547 433.58C210.325 433.58 211.013 433.468 211.611 433.244C212.208 433.02 212.677 432.711 213.019 432.316C213.36 431.911 213.531 431.441 213.531 430.908C213.531 430.375 213.36 429.911 213.019 429.516C212.677 429.111 212.208 428.796 211.611 428.572C211.013 428.348 210.325 428.236 209.547 428.236Z" fill="#5C5C65"/>
<rect width="375" height="127" transform="translate(0 685)" fill="url(#paint0_linear_1010_11396)"/>
<rect x="20" y="736" width="335" height="56" rx="8" fill="black"/>
<path d="M176.781 762.876H178.909V764.988H176.781V762.876ZM183.053 756.108H185.181V766.204H183.053V756.108ZM184.445 760.332H187.053V762.092H184.445V760.332ZM173.501 765.9L173.261 764.252C174.147 764.252 175.107 764.247 176.141 764.236C177.187 764.225 178.243 764.193 179.309 764.14C180.376 764.076 181.411 763.985 182.413 763.868L182.573 765.324C181.539 765.505 180.488 765.639 179.421 765.724C178.355 765.799 177.315 765.847 176.301 765.868C175.299 765.879 174.365 765.889 173.501 765.9ZM175.133 766.78H185.181V770.924H183.053V768.428H175.133V766.78ZM173.629 757.18H182.045V758.716H173.629V757.18ZM177.837 759.068C178.936 759.068 179.811 759.265 180.461 759.66C181.123 760.044 181.453 760.577 181.453 761.26C181.453 761.943 181.123 762.481 180.461 762.876C179.811 763.271 178.936 763.468 177.837 763.468C176.749 763.468 175.875 763.271 175.213 762.876C174.563 762.481 174.237 761.943 174.237 761.26C174.237 760.577 174.563 760.044 175.213 759.66C175.875 759.265 176.749 759.068 177.837 759.068ZM177.837 760.444C177.336 760.444 176.947 760.513 176.669 760.652C176.392 760.791 176.253 760.993 176.253 761.26C176.253 761.527 176.392 761.735 176.669 761.884C176.947 762.023 177.336 762.092 177.837 762.092C178.339 762.092 178.728 762.023 179.005 761.884C179.293 761.735 179.437 761.527 179.437 761.26C179.437 760.993 179.293 760.791 179.005 760.652C178.728 760.513 178.339 760.444 177.837 760.444ZM176.781 755.98H178.909V757.884H176.781V755.98ZM198.332 756.108H200.46V766.748H198.332V756.108ZM190.588 768.956H200.844V770.668H190.588V768.956ZM190.588 765.692H192.716V769.66H190.588V765.692ZM192.396 757.052C193.153 757.052 193.836 757.212 194.444 757.532C195.052 757.852 195.532 758.295 195.884 758.86C196.247 759.425 196.428 760.076 196.428 760.812C196.428 761.527 196.247 762.172 195.884 762.748C195.532 763.313 195.052 763.761 194.444 764.092C193.836 764.412 193.153 764.572 192.396 764.572C191.639 764.572 190.956 764.412 190.348 764.092C189.74 763.761 189.255 763.313 188.892 762.748C188.54 762.172 188.364 761.527 188.364 760.812C188.364 760.076 188.54 759.425 188.892 758.86C189.255 758.295 189.74 757.852 190.348 757.532C190.956 757.212 191.639 757.052 192.396 757.052ZM192.396 758.876C192.033 758.876 191.703 758.956 191.404 759.116C191.105 759.265 190.871 759.484 190.7 759.772C190.529 760.049 190.444 760.396 190.444 760.812C190.444 761.207 190.529 761.548 190.7 761.836C190.871 762.113 191.105 762.332 191.404 762.492C191.703 762.641 192.033 762.716 192.396 762.716C192.759 762.716 193.089 762.641 193.388 762.492C193.687 762.332 193.921 762.113 194.092 761.836C194.263 761.548 194.348 761.207 194.348 760.812C194.348 760.396 194.263 760.049 194.092 759.772C193.921 759.484 193.687 759.265 193.388 759.116C193.089 758.956 192.759 758.876 192.396 758.876Z" fill="white"/>
<rect x="121" y="799" width="134" height="5" rx="2.5" fill="black"/>
<rect width="375" height="54" fill="white"/>
<rect opacity="0.35" x="327.836" y="21.5" width="21" height="10.3333" rx="2.16667" stroke="#222227"/>
<path opacity="0.4" d="M350.336 24.668V28.668C351.141 28.3292 351.664 27.5411 351.664 26.668C351.664 25.7948 351.141 25.0067 350.336 24.668Z" fill="#222227"/>
<rect x="329.336" y="23" width="18" height="7.33333" rx="1.33333" fill="#222227"/>
<path d="M312.447 29.4247C313.728 28.3425 315.604 28.3425 316.885 29.4247C316.949 29.483 316.987 29.5655 316.988 29.6523C316.99 29.739 316.956 29.823 316.895 29.8837L314.889 31.9052C314.83 31.9646 314.75 31.998 314.666 31.998C314.582 31.9979 314.502 31.9646 314.443 31.9052L312.438 29.8837C312.377 29.8229 312.342 29.739 312.344 29.6523C312.346 29.5656 312.383 29.4829 312.447 29.4247ZM309.771 26.7275C312.53 24.1634 316.802 24.1635 319.562 26.7275C319.624 26.7876 319.659 26.8705 319.66 26.957C319.661 27.0435 319.627 27.127 319.566 27.1884L318.407 28.3583C318.288 28.4778 318.095 28.4804 317.973 28.3642C317.067 27.5444 315.887 27.0907 314.665 27.0908C313.444 27.0913 312.266 27.545 311.36 28.3642C311.238 28.4805 311.044 28.4778 310.925 28.3583L309.767 27.1884C309.705 27.1271 309.671 27.0435 309.672 26.957C309.673 26.8705 309.708 26.7875 309.771 26.7275ZM307.097 24.039C311.328 19.9869 318.004 19.9871 322.236 24.039C322.298 24.0992 322.333 24.1817 322.333 24.2675C322.333 24.3533 322.3 24.4361 322.239 24.497L321.079 25.6669C320.96 25.787 320.765 25.7881 320.644 25.6699C319.031 24.1384 316.892 23.2842 314.667 23.2841C312.442 23.2841 310.302 24.1382 308.689 25.6699C308.568 25.7882 308.374 25.787 308.255 25.6669L307.094 24.497C307.033 24.4361 307 24.3532 307 24.2675C307.001 24.1817 307.035 24.0991 307.097 24.039Z" fill="#222227"/>
<path d="M287 28.0039C287.552 28.0039 288 28.4516 288 29.0039V31.0039C288 31.5562 287.552 32.0039 287 32.0039H286C285.448 32.0039 285 31.5562 285 31.0039V29.0039C285 28.4516 285.448 28.0039 286 28.0039H287ZM291.664 26.0039C292.216 26.0039 292.664 26.4516 292.664 27.0039V31.0039C292.664 31.5562 292.216 32.0039 291.664 32.0039H290.664C290.112 32.0039 289.664 31.5562 289.664 31.0039V27.0039C289.664 26.4516 290.112 26.0039 290.664 26.0039H291.664ZM301 21.3359C301.552 21.3359 302 21.7837 302 22.3359V31.0029C302 31.5551 301.552 32.0029 301 32.0029H300C299.448 32.0029 299 31.5551 299 31.0029V22.3359C299 21.7837 299.448 21.3359 300 21.3359H301ZM296.336 23.668C296.888 23.668 297.336 24.1157 297.336 24.668V31.001C297.336 31.5533 296.888 32.001 296.336 32.001H295.336C294.784 32.001 294.336 31.5533 294.336 31.001V24.668C294.336 24.1157 294.784 23.668 295.336 23.668H296.336Z" fill="#222227"/>
<path d="M38.4012 21.248C40.7303 21.248 42.6712 22.8813 42.6712 26.5874V26.6021C42.6712 30.0957 41.0525 32.1831 38.3572 32.1831C36.4017 32.1831 34.9368 31.0552 34.6072 29.4585L34.5926 29.3779H36.4676L36.4896 29.4438C36.7752 30.1689 37.4197 30.6377 38.3646 30.6377C40.0638 30.6377 40.7742 29.0117 40.8475 27.0122C40.8548 26.9023 40.8621 26.7925 40.8621 26.6753H40.8182C40.4007 27.6421 39.346 28.3745 37.9178 28.3745C35.8816 28.3745 34.4461 26.9097 34.4461 24.9248V24.9102C34.4461 22.7788 36.1233 21.248 38.4012 21.248ZM38.4012 26.917C39.6097 26.917 40.5325 26.0674 40.5325 24.8882V24.8809C40.5325 23.709 39.6097 22.7935 38.4231 22.7935C37.2513 22.7935 36.3064 23.7017 36.3064 24.8442V24.8589C36.3064 26.0601 37.2 26.917 38.4012 26.917ZM44.7296 25.0859C44.1363 25.0859 43.6676 24.6172 43.6676 24.0239C43.6676 23.4307 44.1363 22.9692 44.7296 22.9692C45.3229 22.9692 45.7843 23.4307 45.7843 24.0239C45.7843 24.6172 45.3229 25.0859 44.7296 25.0859ZM44.7296 30.4619C44.1363 30.4619 43.6676 29.9932 43.6676 29.3999C43.6676 28.8066 44.1363 28.3452 44.7296 28.3452C45.3229 28.3452 45.7843 28.8066 45.7843 29.3999C45.7843 29.9932 45.3229 30.4619 44.7296 30.4619ZM51.9809 32V29.9712H46.7074V28.3599L51.0946 21.4312H53.7826V28.4185H55.2182V29.9712H53.7826V32H51.9809ZM48.4066 28.4624H52.0102V22.8594H51.9662L48.4066 28.4111V28.4624ZM58.7487 32V23.2329H58.7048L55.9729 25.1079V23.3721L58.7341 21.4312H60.6018V32H58.7487Z" fill="#222227"/>
</g>
<defs>
<filter id="filter0_d_1010_11396" x="11.998" y="296.997" width="351" height="272" filterUnits="userSpaceOnUse" color-interpolation-filters="sRGB">
<feFlood flood-opacity="0" result="BackgroundImageFix"/>
<feColorMatrix in="SourceAlpha" type="matrix" values="0 0 0 0 0 0 0 0 0 0 0 0 0 0 0 0 0 0 127 0" result="hardAlpha"/>
<feOffset/>
<feGaussianBlur stdDeviation="10"/>
<feComposite in2="hardAlpha" operator="out"/>
<feColorMatrix type="matrix" values="0 0 0 0 0 0 0 0 0 0 0 0 0 0 0 0 0 0 0.05 0"/>
<feBlend mode="normal" in2="BackgroundImageFix" result="effect1_dropShadow_1010_11396"/>
<feBlend mode="normal" in="SourceGraphic" in2="effect1_dropShadow_1010_11396" result="shape"/>
</filter>
<linearGradient id="paint0_linear_1010_11396" x1="188" y1="7.86519e-08" x2="187.523" y2="127" gradientUnits="userSpaceOnUse">
<stop stop-color="#F7F7F8" stop-opacity="0"/>
<stop offset="0.355891" stop-color="#F7F7F8"/>
<stop offset="0.991148" stop-color="#F7F7F8"/>
</linearGradient>
<clipPath id="clip0_1010_11396">
<rect width="375" height="812" fill="white"/>
</clipPath>
</defs>
</svg>
