<svg width="187" height="405" viewBox="0 0 187 405" fill="none" xmlns="http://www.w3.org/2000/svg">
<g clip-path="url(#clip0_3154_2517)">
<rect width="186.69" height="404.246" fill="white"/>
<rect x="59.6445" y="397.847" width="66.7105" height="2.4892" rx="1.2446" fill="black"/>
<path opacity="0.35" d="M168.912 8.8783H177.21C177.805 8.87835 178.288 9.36093 178.288 9.95642V12.9437C178.288 13.5394 177.806 14.0228 177.21 14.0228H168.912C168.317 14.0226 167.834 13.5393 167.834 12.9437V9.95642C167.834 9.36103 168.317 8.87852 168.912 8.8783Z" stroke="black" stroke-width="0.49784"/>
<path opacity="0.4" d="M179.035 10.4547V12.4461C179.436 12.2774 179.696 11.8851 179.696 11.4504C179.696 11.0157 179.436 10.6234 179.035 10.4547Z" fill="black"/>
<path d="M168.58 10.2888C168.58 9.92219 168.877 9.625 169.244 9.625H176.877C177.244 9.625 177.541 9.92219 177.541 10.2888V12.612C177.541 12.9786 177.244 13.2758 176.877 13.2758H169.244C168.877 13.2758 168.58 12.9786 168.58 12.612V10.2888Z" fill="black"/>
<path fill-rule="evenodd" clip-rule="evenodd" d="M160.177 12.8095C160.812 12.2726 161.742 12.2727 162.377 12.8095C162.409 12.8384 162.428 12.8798 162.429 12.9228C162.43 12.9657 162.412 13.007 162.382 13.0371L161.388 14.041C161.359 14.0704 161.319 14.0868 161.277 14.0869C161.236 14.0869 161.196 14.0704 161.167 14.041L160.172 13.0371C160.141 13.007 160.124 12.9657 160.125 12.9228C160.126 12.8798 160.145 12.8384 160.177 12.8095ZM158.85 11.4717C160.218 10.199 162.337 10.199 163.705 11.4717C163.736 11.5015 163.753 11.5421 163.754 11.5849C163.754 11.6279 163.737 11.6697 163.707 11.7002L163.133 12.2803C163.074 12.3396 162.978 12.3409 162.917 12.2832C162.468 11.8764 161.883 11.6514 161.277 11.6513C160.672 11.6516 160.088 11.8768 159.639 12.2832C159.578 12.3409 159.482 12.3396 159.423 12.2803L158.848 11.7002C158.817 11.6698 158.8 11.6279 158.801 11.5849C158.801 11.5422 158.819 11.5014 158.85 11.4717ZM157.523 10.1357C159.622 8.12518 162.932 8.12516 165.03 10.1357C165.061 10.1655 165.078 10.2066 165.078 10.249C165.078 10.2915 165.062 10.333 165.032 10.3633L164.456 10.9443C164.397 11.0036 164.3 11.0039 164.24 10.9453C163.441 10.1855 162.38 9.76183 161.277 9.7617C160.174 9.76169 159.113 10.1854 158.313 10.9453C158.253 11.004 158.157 11.0037 158.098 10.9443L157.521 10.3633C157.492 10.333 157.475 10.2916 157.476 10.249C157.476 10.2065 157.493 10.1655 157.523 10.1357Z" fill="black"/>
<path fill-rule="evenodd" clip-rule="evenodd" d="M147.505 12.1145C147.78 12.1145 148.003 12.3368 148.003 12.6116V13.6077C148.003 13.8826 147.78 14.1057 147.505 14.1057H147.007C146.732 14.1055 146.51 13.8825 146.51 13.6077V12.6116C146.51 12.3369 146.732 12.1147 147.007 12.1145H147.505ZM149.828 11.1184C150.103 11.1184 150.326 11.3415 150.326 11.6165V13.6077C150.326 13.8826 150.103 14.1057 149.828 14.1057H149.33C149.055 14.1055 148.833 13.8825 148.833 13.6077V11.6165C148.833 11.3416 149.055 11.1186 149.33 11.1184H149.828ZM152.151 9.95728C152.426 9.95728 152.649 10.1795 152.649 10.4543V13.6077C152.649 13.8826 152.426 14.1057 152.151 14.1057H151.653C151.379 14.1055 151.156 13.8825 151.156 13.6077V10.4543C151.156 10.1797 151.379 9.95749 151.653 9.95728H152.151ZM154.475 8.79517C154.75 8.79517 154.973 9.01826 154.973 9.29321V13.6077C154.973 13.8826 154.75 14.1057 154.475 14.1057H153.977C153.702 14.1055 153.48 13.8825 153.479 13.6077V9.29321C153.479 9.0184 153.702 8.79539 153.977 8.79517H154.475Z" fill="black"/>
<path d="M18.5805 14.0672C19.9187 14.0672 20.7136 13.0207 20.7136 11.2487C20.7136 10.5814 20.586 10.0199 20.3417 9.58594C19.988 8.91138 19.379 8.54675 18.6097 8.54675C17.4647 8.54675 16.6553 9.31612 16.6553 10.3954C16.6553 11.4091 17.3845 12.1456 18.3873 12.1456C19.0035 12.1456 19.503 11.8576 19.751 11.358H19.7619C19.7619 11.358 19.7765 11.358 19.7801 11.358C19.7874 11.358 19.813 11.358 19.813 11.358C19.813 12.5613 19.3572 13.2796 18.5878 13.2796C18.1357 13.2796 17.7856 13.0317 17.6653 12.6342H16.7282C16.885 13.4984 17.6179 14.0672 18.5805 14.0672ZM18.6133 11.3981C18.008 11.3981 17.5778 10.9679 17.5778 10.3662C17.5778 9.7792 18.0299 9.3307 18.617 9.3307C19.204 9.3307 19.6562 9.78649 19.6562 10.3808C19.6562 10.9679 19.215 11.3981 18.6133 11.3981Z" fill="black"/>
<path d="M22.2525 14.0162C22.5989 14.0162 22.8359 13.7682 22.8359 13.4401C22.8359 13.1083 22.5989 12.864 22.2525 12.864C21.9097 12.864 21.6691 13.1083 21.6691 13.4401C21.6691 13.7682 21.9097 14.0162 22.2525 14.0162ZM22.2525 11.2815C22.5989 11.2815 22.8359 11.0372 22.8359 10.709C22.8359 10.3772 22.5989 10.1329 22.2525 10.1329C21.9097 10.1329 21.6691 10.3772 21.6691 10.709C21.6691 11.0372 21.9097 11.2815 22.2525 11.2815Z" fill="black"/>
<path d="M26.2489 13.9396H27.1496V12.9588H27.8606V12.1639H27.1496V8.67802H25.8223C24.8925 10.0782 24.1523 11.2487 23.6783 12.1201V12.9588H26.2489V13.9396ZM24.5498 12.1311C25.1623 11.0518 25.7093 10.1876 26.2125 9.44374H26.2635V12.1857H24.5498V12.1311Z" fill="black"/>
<path d="M29.8662 13.9396H30.8069V8.67802H29.8698L28.4952 9.64064V10.5449L29.8042 9.62605H29.8662V13.9396Z" fill="black"/>
<rect x="31.3643" y="84.1348" width="123.464" height="191.668" rx="7.96543" fill="#F3F3F5"/>
<path fill-rule="evenodd" clip-rule="evenodd" d="M85.8766 171.506H91.8499V177.48C91.8499 177.892 92.1851 178.227 92.5975 178.227C93.0099 178.227 93.3442 177.892 93.3442 177.48V171.506H99.3175C99.7299 171.506 100.065 171.171 100.065 170.759C100.065 170.347 99.7299 170.012 99.3175 170.012H93.3442V164.038C93.3442 163.626 93.0099 163.292 92.5975 163.292C92.1851 163.292 91.8499 163.626 91.8499 164.038V170.012H85.8766C85.4643 170.012 85.1299 170.347 85.1299 170.759C85.1299 171.171 85.4643 171.506 85.8766 171.506Z" fill="black"/>
<path d="M76.0546 186.597H76.9069V187.664C76.9069 188.121 76.8671 188.567 76.7874 189.003C76.7078 189.433 76.583 189.834 76.413 190.205C76.2484 190.577 76.0387 190.909 75.7838 191.201C75.5289 191.488 75.2288 191.716 74.8837 191.886L74.2464 191.034C74.5598 190.89 74.8279 190.699 75.051 190.46C75.2793 190.221 75.4678 189.951 75.6165 189.648C75.7652 189.345 75.874 189.027 75.9431 188.692C76.0174 188.352 76.0546 188.01 76.0546 187.664V186.597ZM76.2617 186.597H77.114V187.664C77.114 187.999 77.1459 188.328 77.2096 188.652C77.2786 188.976 77.3822 189.284 77.5202 189.576C77.6636 189.863 77.8415 190.12 78.0539 190.349C78.2663 190.577 78.5212 190.766 78.8186 190.914L78.1734 191.759C77.8442 191.589 77.5574 191.366 77.3131 191.09C77.0742 190.808 76.8777 190.487 76.7237 190.126C76.5697 189.759 76.4529 189.369 76.3732 188.955C76.2989 188.535 76.2617 188.105 76.2617 187.664V186.597ZM79.1054 186.032H80.1727V193.408H79.1054V186.032ZM79.9417 188.867H81.2401V189.743H79.9417V188.867ZM83.5096 186.852H84.3858V187.473C84.3858 187.935 84.3088 188.376 84.1548 188.796C84.0061 189.21 83.7778 189.574 83.4698 189.887C83.1618 190.195 82.7688 190.426 82.2909 190.58L81.7493 189.751C82.1635 189.619 82.498 189.433 82.7529 189.194C83.0131 188.955 83.2043 188.687 83.3264 188.389C83.4486 188.087 83.5096 187.781 83.5096 187.473V186.852ZM83.7327 186.852H84.5929V187.473C84.5929 187.691 84.6274 187.909 84.6965 188.126C84.7655 188.339 84.8691 188.543 85.0071 188.74C85.1505 188.931 85.3311 189.104 85.5488 189.258C85.7665 189.412 86.024 189.536 86.3214 189.632L85.7877 190.452C85.3257 190.304 84.9434 190.081 84.6407 189.783C84.338 189.486 84.1097 189.138 83.9557 188.74C83.807 188.336 83.7327 187.914 83.7327 187.473V186.852ZM82.036 186.549H86.0506V187.394H82.036V186.549ZM86.7914 186.032H87.8508V191.352H86.7914V186.032ZM82.9361 192.428H88.042V193.28H82.9361V192.428ZM82.9361 190.875H83.9955V192.85H82.9361V190.875ZM94.3598 187.656H96.2078V188.509H94.3598V187.656ZM92.6632 186.334C93.0349 186.334 93.3668 186.411 93.6589 186.565C93.9563 186.714 94.1899 186.921 94.3598 187.187C94.5298 187.447 94.6147 187.749 94.6147 188.095C94.6147 188.434 94.5298 188.737 94.3598 189.003C94.1899 189.268 93.9563 189.478 93.6589 189.632C93.3668 189.781 93.0349 189.855 92.6632 189.855C92.2968 189.855 91.9649 189.781 91.6675 189.632C91.3755 189.478 91.1445 189.268 90.9745 189.003C90.8046 188.737 90.7196 188.434 90.7196 188.095C90.7196 187.749 90.8046 187.447 90.9745 187.187C91.1445 186.921 91.3755 186.714 91.6675 186.565C91.9649 186.411 92.2968 186.334 92.6632 186.334ZM92.6632 187.21C92.4827 187.21 92.3207 187.245 92.1773 187.314C92.0393 187.383 91.9304 187.484 91.8507 187.617C91.7711 187.749 91.7313 187.909 91.7313 188.095C91.7313 188.275 91.7711 188.432 91.8507 188.565C91.9304 188.697 92.0393 188.798 92.1773 188.867C92.3207 188.936 92.4827 188.971 92.6632 188.971C92.8438 188.971 93.0031 188.936 93.1411 188.867C93.2845 188.798 93.396 188.697 93.4757 188.565C93.5553 188.432 93.5952 188.275 93.5952 188.095C93.5952 187.909 93.5553 187.749 93.4757 187.617C93.396 187.484 93.2845 187.383 93.1411 187.314C93.0031 187.245 92.8438 187.21 92.6632 187.21ZM95.7379 186.032H96.8052V189.99H95.7379V186.032ZM91.9065 190.317H92.9579V191.01H95.7538V190.317H96.8052V193.328H91.9065V190.317ZM92.9579 191.822V192.484H95.7538V191.822H92.9579ZM97.9596 191.735H104.643V192.595H97.9596V191.735ZM100.763 190.333H101.815V192.077H100.763V190.333ZM98.7163 186.502H103.886V188.963H99.7757V190.197H98.7243V188.134H102.834V187.346H98.7163V186.502ZM98.7243 189.783H104.053V190.628H98.7243V189.783ZM106.068 189.433H111.253V190.269H106.068V189.433ZM105.287 191.655H111.97V192.515H105.287V191.655ZM106.068 186.629H111.198V187.489H107.119V189.783H106.068V186.629Z" fill="black"/>
<path d="M14.9233 47.6489H16.2018V49.2499C16.2018 49.9349 16.142 50.604 16.0226 51.2572C15.9031 51.9024 15.7159 52.5038 15.461 53.0614C15.2141 53.619 14.8994 54.1168 14.5171 54.5549C14.1348 54.985 13.6847 55.3275 13.167 55.5824L12.2111 54.304C12.6811 54.0889 13.0833 53.8022 13.4179 53.4437C13.7604 53.0853 14.0432 52.679 14.2662 52.225C14.4892 51.771 14.6525 51.293 14.7561 50.7912C14.8676 50.2814 14.9233 49.7677 14.9233 49.2499V47.6489ZM15.234 47.6489H16.5124V49.2499C16.5124 49.7517 16.5602 50.2456 16.6558 50.7315C16.7594 51.2174 16.9147 51.6794 17.1218 52.1175C17.3369 52.5476 17.6037 52.9339 17.9223 53.2764C18.2409 53.619 18.6233 53.9017 19.0693 54.1248L18.1015 55.3913C17.6077 55.1364 17.1775 54.8018 16.8111 54.3876C16.4527 53.9655 16.158 53.4835 15.927 52.9419C15.696 52.3923 15.5207 51.8068 15.4013 51.1855C15.2897 50.5562 15.234 49.911 15.234 49.2499V47.6489ZM19.4995 46.8005H21.1005V57.8645H19.4995V46.8005ZM20.754 51.0541H22.7016V52.3684H20.754V51.0541ZM26.1059 48.0312H27.4202V48.9632C27.4202 49.6562 27.3047 50.3173 27.0737 50.9466C26.8506 51.5679 26.5081 52.1135 26.0461 52.5835C25.5841 53.0454 24.9947 53.3919 24.2778 53.6229L23.4653 52.3803C24.0866 52.1812 24.5885 51.9024 24.9708 51.544C25.3611 51.1855 25.6479 50.7833 25.8311 50.3372C26.0143 49.8832 26.1059 49.4252 26.1059 48.9632V48.0312ZM26.4404 48.0312H27.7308V48.9632C27.7308 49.2897 27.7826 49.6163 27.8861 49.9429C27.9897 50.2615 28.145 50.5682 28.3521 50.8629C28.5672 51.1497 28.838 51.4085 29.1646 51.6395C29.4912 51.8705 29.8775 52.0577 30.3236 52.2011L29.523 53.4318C28.83 53.2087 28.2565 52.8742 27.8025 52.4281C27.3485 51.9821 27.006 51.4603 26.775 50.8629C26.5519 50.2575 26.4404 49.6243 26.4404 48.9632V48.0312ZM23.8955 47.5772H29.9173V48.8437H23.8955V47.5772ZM31.0285 46.8005H32.6176V54.7819H31.0285V46.8005ZM25.2456 56.3949H32.9044V57.6734H25.2456V56.3949ZM25.2456 54.065H26.8347V57.0282H25.2456V54.065ZM39.4271 46.9439C40.6857 46.9439 41.6654 47.1072 42.3664 47.4338C43.0753 47.7604 43.4298 48.2303 43.4298 48.8437C43.4298 49.4491 43.0753 49.915 42.3664 50.2416C41.6654 50.5682 40.6857 50.7315 39.4271 50.7315C38.1606 50.7315 37.1729 50.5682 36.464 50.2416C35.763 49.915 35.4125 49.4491 35.4125 48.8437C35.4125 48.2303 35.763 47.7604 36.464 47.4338C37.1729 47.1072 38.1606 46.9439 39.4271 46.9439ZM39.4152 48.1148C38.8895 48.1148 38.4514 48.1427 38.1009 48.1985C37.7504 48.2463 37.4875 48.3259 37.3123 48.4374C37.145 48.541 37.0614 48.6764 37.0614 48.8437C37.0614 49.011 37.145 49.1503 37.3123 49.2619C37.4875 49.3654 37.7504 49.4411 38.1009 49.4889C38.4514 49.5367 38.8895 49.5606 39.4152 49.5606C39.9489 49.5606 40.3909 49.5367 40.7414 49.4889C41.0919 49.4411 41.3508 49.3654 41.518 49.2619C41.6853 49.1503 41.769 49.011 41.769 48.8437C41.769 48.6764 41.6853 48.541 41.518 48.4374C41.3508 48.3259 41.0919 48.2463 40.7414 48.1985C40.3909 48.1427 39.9489 48.1148 39.4152 48.1148ZM34.4089 51.2453H44.4214V52.4998H34.4089V51.2453ZM35.5559 53.1211H43.2027V55.9528H37.145V56.9326H35.5679V54.8536H41.6375V54.292H35.5559V53.1211ZM35.5679 56.5861H43.5014V57.7928H35.5679V56.5861ZM47.7928 51.8546H57.7934V53.145H47.7928V51.8546ZM48.9996 49.8354H56.6583V51.0899H48.9996V49.8354ZM48.9996 47.0873H56.5986V48.3658H50.5767V50.4567H48.9996V47.0873ZM52.7513 53.7902C53.9461 53.7902 54.886 53.9694 55.571 54.3279C56.2561 54.6784 56.5986 55.1802 56.5986 55.8333C56.5986 56.4785 56.2561 56.9764 55.571 57.3269C54.886 57.6853 53.9461 57.8645 52.7513 57.8645C51.5565 57.8645 50.6165 57.6853 49.9315 57.3269C49.2544 56.9764 48.9159 56.4785 48.9159 55.8333C48.9159 55.1802 49.2544 54.6784 49.9315 54.3279C50.6165 53.9694 51.5565 53.7902 52.7513 53.7902ZM52.7513 54.997C52.2574 54.997 51.8432 55.0288 51.5087 55.0926C51.1821 55.1483 50.9352 55.2399 50.7679 55.3674C50.6006 55.4869 50.517 55.6422 50.517 55.8333C50.517 56.0166 50.6006 56.1719 50.7679 56.2993C50.9352 56.4188 51.1821 56.5104 51.5087 56.5741C51.8432 56.6299 52.2574 56.6578 52.7513 56.6578C53.2451 56.6578 53.6553 56.6299 53.9819 56.5741C54.3165 56.5104 54.5674 56.4188 54.7347 56.2993C54.9019 56.1719 54.9856 56.0166 54.9856 55.8333C54.9856 55.6422 54.9019 55.4869 54.7347 55.3674C54.5674 55.2399 54.3165 55.1483 53.9819 55.0926C53.6553 55.0288 53.2451 54.997 52.7513 54.997ZM58.7722 52.7268H68.7848V53.9814H58.7722V52.7268ZM59.9909 47.0037H67.566V50.0026H61.58V51.1975H60.0148V48.8795H66.0008V48.2104H59.9909V47.0037ZM60.0148 50.7315H67.7811V51.9383H60.0148V50.7315ZM62.9899 51.3169H64.5671V53.4079H62.9899V51.3169ZM59.8714 54.6027H67.6377V57.8287H66.0486V55.8692H59.8714V54.6027ZM69.7516 48.4613H75.0447V49.7159H69.7516V48.4613ZM72.4161 50.2177C72.886 50.2177 73.3002 50.3292 73.6587 50.5523C74.0251 50.7753 74.3118 51.0859 74.5189 51.4842C74.734 51.8745 74.8415 52.3286 74.8415 52.8463C74.8415 53.3641 74.734 53.8221 74.5189 54.2203C74.3118 54.6107 74.0251 54.9173 73.6587 55.1404C73.3002 55.3634 72.886 55.4749 72.4161 55.4749C71.9461 55.4749 71.5279 55.3634 71.1615 55.1404C70.7951 54.9173 70.5083 54.6107 70.3012 54.2203C70.0941 53.8221 69.9906 53.3641 69.9906 52.8463C69.9906 52.3286 70.0941 51.8745 70.3012 51.4842C70.5083 51.0859 70.7951 50.7753 71.1615 50.5523C71.5359 50.3292 71.9541 50.2177 72.4161 50.2177ZM72.4161 51.532C72.2249 51.532 72.0497 51.5838 71.8903 51.6873C71.731 51.7909 71.6076 51.9422 71.5199 52.1414C71.4323 52.3325 71.3885 52.5675 71.3885 52.8463C71.3885 53.1251 71.4323 53.3641 71.5199 53.5632C71.6076 53.7623 71.731 53.9137 71.8903 54.0172C72.0497 54.1128 72.2249 54.1606 72.4161 54.1606C72.6152 54.1606 72.7904 54.1128 72.9418 54.0172C73.0931 53.9137 73.2126 53.7623 73.3002 53.5632C73.3878 53.3641 73.4317 53.1251 73.4317 52.8463C73.4317 52.5675 73.3878 52.3325 73.3002 52.1414C73.2126 51.9422 73.0931 51.7909 72.9418 51.6873C72.7904 51.5838 72.6152 51.532 72.4161 51.532ZM77.7569 46.7886H79.2624V57.8526H77.7569V46.7886ZM76.4306 51.293H78.2468V52.5715H76.4306V51.293ZM75.427 46.9917H76.9086V57.3866H75.427V46.9917ZM71.6394 47.0873H73.2046V49.2499H71.6394V47.0873ZM87.2098 48.0193H88.5958V48.3538C88.5958 48.7361 88.5321 49.1065 88.4046 49.465C88.2852 49.8234 88.102 50.158 87.855 50.4686C87.6081 50.7713 87.3054 51.0461 86.947 51.293C86.5965 51.532 86.1903 51.7351 85.7283 51.9024C85.2663 52.0697 84.7525 52.1892 84.1869 52.2608L83.6015 51.0302C84.0953 50.9665 84.5334 50.8709 84.9158 50.7434C85.3061 50.608 85.6446 50.4527 85.9314 50.2775C86.2181 50.0943 86.4571 49.8991 86.6483 49.692C86.8394 49.4849 86.9788 49.2658 87.0665 49.0348C87.162 48.8039 87.2098 48.5768 87.2098 48.3538V48.0193ZM87.6758 48.0193H89.0498V48.3538C89.0498 48.5768 89.0937 48.8039 89.1813 49.0348C89.2769 49.2658 89.4202 49.4849 89.6114 49.692C89.8026 49.8991 90.0415 50.0943 90.3283 50.2775C90.623 50.4527 90.9616 50.608 91.3439 50.7434C91.7262 50.8709 92.1643 50.9665 92.6582 51.0302L92.0727 52.2608C91.5072 52.1892 90.9934 52.0697 90.5314 51.9024C90.0694 51.7351 89.6592 51.532 89.3008 51.293C88.9503 51.0461 88.6516 50.7713 88.4046 50.4686C88.1657 50.158 87.9825 49.8234 87.855 49.465C87.7356 49.1065 87.6758 48.7361 87.6758 48.3538V48.0193ZM87.2935 53.8141H88.8826V57.8645H87.2935V53.8141ZM83.1236 52.8941H93.1361V54.1726H83.1236V52.8941ZM84.0077 47.3621H92.2161V48.6167H84.0077V47.3621ZM98.4641 50.5164H100.304V51.8068H98.4641V50.5164ZM96.1103 47.7564H97.317V49.6084C97.317 50.2376 97.2732 50.855 97.1856 51.4603C97.098 52.0657 96.9546 52.6352 96.7555 53.1689C96.5643 53.7026 96.3094 54.1845 95.9908 54.6146C95.6801 55.0368 95.3018 55.3833 94.8557 55.6541L93.8999 54.4593C94.3141 54.2124 94.6606 53.9097 94.9394 53.5513C95.2181 53.1928 95.4452 52.7985 95.6204 52.3684C95.7956 51.9382 95.9191 51.4922 95.9908 51.0302C96.0704 50.5602 96.1103 50.0863 96.1103 49.6084V47.7564ZM96.4568 47.7564H97.6396V49.5367C97.6396 49.9907 97.6715 50.4407 97.7352 50.8868C97.8069 51.3329 97.9184 51.759 98.0698 52.1653C98.2211 52.5715 98.4202 52.9459 98.6672 53.2884C98.9221 53.6309 99.2407 53.9256 99.623 54.1726L98.7508 55.4152C98.3207 55.1443 97.9543 54.8018 97.6516 54.3876C97.3569 53.9655 97.1219 53.4915 96.9466 52.9658C96.7714 52.4401 96.644 51.8865 96.5643 51.305C96.4926 50.7235 96.4568 50.1341 96.4568 49.5367V47.7564ZM102.096 46.7886H103.614V57.8526H102.096V46.7886ZM99.85 46.9678H101.332V57.3627H99.85V46.9678ZM107.305 52.4162H108.894V55.5107H107.305V52.4162ZM111.319 52.4162H112.908V55.5107H111.319V52.4162ZM105.106 55.2837H115.131V56.5741H105.106V55.2837ZM110.101 47.3382C110.897 47.3382 111.606 47.4617 112.227 47.7086C112.857 47.9555 113.347 48.302 113.697 48.7481C114.055 49.1862 114.235 49.7079 114.235 50.3133C114.235 50.9107 114.055 51.4324 113.697 51.8785C113.347 52.3166 112.857 52.6591 112.227 52.9061C111.606 53.153 110.897 53.2764 110.101 53.2764C109.312 53.2764 108.603 53.153 107.974 52.9061C107.353 52.6591 106.863 52.3166 106.504 51.8785C106.146 51.4324 105.967 50.9107 105.967 50.3133C105.967 49.7079 106.146 49.1862 106.504 48.7481C106.863 48.302 107.353 47.9555 107.974 47.7086C108.603 47.4617 109.312 47.3382 110.101 47.3382ZM110.101 48.5689C109.591 48.5689 109.141 48.6406 108.75 48.7839C108.368 48.9194 108.069 49.1145 107.854 49.3694C107.639 49.6243 107.532 49.9389 107.532 50.3133C107.532 50.6717 107.639 50.9824 107.854 51.2453C108.069 51.5002 108.368 51.6993 108.75 51.8427C109.141 51.9781 109.591 52.0458 110.101 52.0458C110.618 52.0458 111.068 51.9781 111.451 51.8427C111.841 51.6993 112.14 51.5002 112.347 51.2453C112.562 50.9824 112.669 50.6717 112.669 50.3133C112.669 49.9389 112.562 49.6243 112.347 49.3694C112.14 49.1145 111.841 48.9194 111.451 48.7839C111.068 48.6406 110.618 48.5689 110.101 48.5689Z" fill="#222227"/>
<rect x="9.95703" y="366.41" width="166.776" height="27.879" rx="5.97407" fill="black"/>
<path d="M92.2565 376.986V379.616H93.2989V380.425H92.2565V384.081H91.2608V376.986H92.2565ZM86.9514 382.361V377.64H90.2729V378.441H87.9393V381.545C88.9661 381.537 89.814 381.482 90.7552 381.319L90.8641 382.151C89.7634 382.338 88.7989 382.365 87.5504 382.361H86.9514ZM96.7837 377.119C98.3589 377.115 99.3546 377.64 99.3585 378.503C99.3546 379.363 98.3589 379.876 96.7837 379.872C95.2163 379.876 94.2012 379.363 94.2012 378.503C94.2012 377.64 95.2163 377.115 96.7837 377.119ZM93.5556 381.078V380.285H100.012V381.078H93.5556ZM94.3023 383.987V381.576H99.2418V383.987H94.3023ZM95.2358 378.503C95.228 378.9 95.792 379.102 96.7837 379.102C97.76 379.102 98.3317 378.9 98.3317 378.503C98.3317 378.095 97.76 377.889 96.7837 377.889C95.792 377.889 95.228 378.095 95.2358 378.503ZM95.2824 383.194H98.2695V382.361H95.2824V383.194Z" fill="white"/>
</g>
<defs>
<clipPath id="clip0_3154_2517">
<rect width="186.69" height="404.246" fill="white"/>
</clipPath>
</defs>
</svg>
